<svg width="193" height="172" viewBox="0 0 193 172" fill="none" xmlns="http://www.w3.org/2000/svg">
<g clip-path="url(#clip0_146_910)">
<g opacity="0.8">
<path d="M143.038 94.2891L135 102.517L144.642 99.9396L143.038 94.2891Z" fill="#E8E9EA"/>
<path d="M190.865 97.6949L145.193 99.9132C144.02 99.9701 143.038 99.0336 143.038 97.8585V79.0559C143.038 77.0123 144.66 75.3381 146.701 75.2748L187.864 74C190.929 74 193.414 76.4869 193.414 79.5543V95.018C193.414 96.4476 192.293 97.6263 190.865 97.6955V97.6949Z" fill="#E8E9EA"/>
<path opacity="0.85" d="M146.559 99.1579C145.831 99.1579 145.145 98.8835 144.614 98.3768C144.05 97.8385 143.739 97.112 143.739 96.3315V79.3848C143.739 77.3875 145.34 75.775 147.382 75.7134L187.237 74.5089C190.257 74.5089 192.713 76.9079 192.713 79.8557V94.4662C192.713 95.8724 191.587 97.027 190.15 97.095L146.697 99.1544C146.65 99.1567 146.605 99.1579 146.559 99.1579ZM187.24 74.7071L147.388 75.9116C145.453 75.9702 143.937 77.496 143.937 79.3854V96.3321C143.937 97.0574 144.226 97.733 144.751 98.2338C145.275 98.7345 145.962 98.992 146.687 98.9568L190.141 96.8974C191.472 96.8346 192.515 95.7668 192.515 94.4668V79.8563C192.515 77.0175 190.148 74.7077 187.24 74.7077V74.7071Z" fill="white"/>
<path d="M187.107 78.1352L150.587 79.5033C150.228 79.5168 149.946 79.7548 149.958 80.0334L149.972 80.3547C149.983 80.6303 150.279 80.8426 150.634 80.8297L187.155 79.4951C187.515 79.4822 187.797 79.2441 187.785 78.965L187.77 78.6108C187.758 78.3346 187.462 78.1229 187.107 78.1364V78.1352Z" fill="white"/>
<path d="M183.838 87.3873L147.318 88.7484C146.959 88.7618 146.677 89.0075 146.69 89.296L146.704 89.6285C146.716 89.9141 147.012 90.134 147.367 90.1211L183.888 88.7947C184.248 88.7818 184.53 88.5355 184.517 88.2464L184.501 87.8793C184.489 87.5932 184.193 87.3733 183.837 87.3868L183.838 87.3873Z" fill="white"/>
<path d="M188.105 91.2575L147.393 92.7956C146.993 92.8109 146.678 93.0607 146.69 93.3521L146.705 93.6881C146.717 93.9766 147.046 94.1971 147.442 94.183L188.156 92.6795C188.556 92.6649 188.872 92.4151 188.859 92.123L188.843 91.7524C188.831 91.4639 188.502 91.2429 188.106 91.2581L188.105 91.2575Z" fill="white"/>
<path d="M167.083 83.5899L147.178 84.1704C146.983 84.1763 146.837 84.4448 146.852 84.7685L146.871 85.142C146.886 85.4628 147.055 85.7167 147.249 85.7114L167.155 85.1696C167.351 85.1643 167.498 84.8958 167.481 84.5715L167.461 84.1593C167.445 83.8385 167.276 83.584 167.082 83.5899H167.083Z" fill="white"/>
<path d="M189.016 82.9015L170.202 83.4409C170.018 83.4462 169.88 83.7142 169.897 84.0385L169.915 84.412C169.931 84.7328 170.092 84.9872 170.274 84.9826L189.091 84.4812C189.276 84.4765 189.413 84.2079 189.397 83.8837L189.377 83.4714C189.361 83.1507 189.2 82.8956 189.017 82.9009L189.016 82.9015Z" fill="white"/>
</g>
<g opacity="0.8">
<path d="M102.711 136.036L92 147L104.848 143.566L102.711 136.036Z" fill="#E8E9EA"/>
<path d="M166.443 140.575L105.583 143.531C104.02 143.606 102.711 142.359 102.711 140.793V115.737C102.711 113.014 104.872 110.783 107.593 110.699L162.444 109C166.528 109 169.84 112.314 169.84 116.401V137.008C169.84 138.913 168.345 140.483 166.443 140.575V140.575Z" fill="#E8E9EA"/>
<path opacity="0.85" d="M107.403 142.524C106.433 142.524 105.519 142.158 104.811 141.483C104.059 140.766 103.646 139.798 103.646 138.758V116.176C103.646 113.514 105.778 111.365 108.5 111.283L161.608 109.678C165.633 109.678 168.905 112.875 168.905 116.803V136.272C168.905 138.146 167.405 139.685 165.49 139.775L107.586 142.519C107.525 142.523 107.464 142.524 107.403 142.524ZM161.612 109.942L108.508 111.547C105.929 111.625 103.909 113.659 103.909 116.176V138.759C103.909 139.725 104.294 140.625 104.993 141.293C105.692 141.96 106.608 142.303 107.574 142.256L165.478 139.512C167.251 139.428 168.641 138.005 168.641 136.273V116.804C168.641 113.021 165.488 109.943 161.612 109.943V109.942Z" fill="white"/>
<path d="M161.435 114.51L112.77 116.333C112.293 116.351 111.916 116.669 111.933 117.04L111.951 117.468C111.966 117.835 112.36 118.118 112.833 118.101L161.5 116.322C161.978 116.305 162.355 115.988 162.339 115.616L162.319 115.144C162.303 114.776 161.909 114.494 161.435 114.512V114.51Z" fill="white"/>
<path d="M157.079 126.839L108.414 128.653C107.936 128.671 107.561 128.998 107.577 129.383L107.596 129.826C107.612 130.206 108.006 130.499 108.48 130.482L157.146 128.715C157.625 128.697 158.001 128.369 157.984 127.984L157.963 127.495C157.947 127.114 157.552 126.821 157.078 126.839L157.079 126.839Z" fill="white"/>
<path d="M162.765 131.997L108.514 134.046C107.981 134.066 107.561 134.399 107.578 134.788L107.597 135.235C107.614 135.62 108.052 135.914 108.58 135.895L162.832 133.891C163.366 133.872 163.787 133.539 163.77 133.15L163.749 132.656C163.733 132.272 163.294 131.977 162.766 131.997L162.765 131.997Z" fill="white"/>
<path d="M134.753 121.779L108.228 122.553C107.967 122.56 107.773 122.918 107.794 123.35L107.818 123.847C107.839 124.275 108.064 124.613 108.322 124.606L134.849 123.884C135.109 123.877 135.305 123.519 135.283 123.087L135.255 122.538C135.234 122.11 135.009 121.771 134.751 121.779H134.753Z" fill="white"/>
<path d="M163.979 120.862L138.909 121.581C138.663 121.588 138.48 121.945 138.501 122.377L138.526 122.875C138.547 123.302 138.761 123.641 139.005 123.635L164.079 122.967C164.325 122.96 164.508 122.603 164.487 122.17L164.46 121.621C164.439 121.194 164.225 120.854 163.981 120.861L163.979 120.862Z" fill="white"/>
</g>
<path d="M63.93 74.4268C63.93 74.4268 88.4177 104.379 97.4269 97.162C106.436 89.9446 82.114 50.6011 82.114 50.6011L63.93 74.4268Z" fill="url(#paint0_linear_146_910)"/>
<path d="M72.1939 130.208C72.1939 130.208 85.7585 181.981 85.5138 247.131C85.5091 248.319 84.6792 249.344 83.5217 249.589C81.8166 249.95 79.3088 250.378 77.2339 250.32C76.1264 250.288 75.1995 249.463 75.0132 248.366C73.1114 237.164 62.1957 174.058 55.9766 163.813C55.9766 163.813 51.8852 220.018 53.1932 249.178C53.2261 249.903 52.6972 250.532 51.9793 250.615C50.8905 250.742 49.1478 250.837 46.9308 250.601C46.0895 250.511 45.4101 249.873 45.2897 249.031C43.9346 239.551 36.1375 183.119 36.4687 142.469C36.4875 140.176 42.5052 130.209 42.5052 130.209H72.1939V130.208Z" fill="#434343"/>
<path d="M81.5371 50.8553C62.8695 48.1439 42.3631 50.6313 32.4111 51.8911C29.1881 52.2984 26.2409 53.8946 24.118 56.3621C15.696 66.15 -2.78345 92.9471 18.9679 119.95C21.7514 118.398 25.7064 115.91 28.393 113.03C25.9868 106.218 25.7892 97.5117 30.833 86.8354C31.0052 87.6812 31.2188 88.5195 31.4776 89.3436C38.4288 111.46 38.7995 129.864 38.7835 134.106C38.7817 134.683 39.1261 135.2 39.6577 135.415C48.8062 139.097 66.4161 136.905 72.3275 136.021C73.4116 135.858 74.1408 134.845 73.9912 133.755C71.9116 118.624 78.9719 96.4986 84.5869 81.9759C86.8058 76.2366 82.6993 52.4647 81.5371 50.8562V50.8553Z" fill="url(#paint1_linear_146_910)"/>
<path d="M51.7825 28.8629L49.2051 50.2599C49.0884 51.2305 49.6831 52.1481 50.6176 52.4231C53.4152 53.2444 59.4037 54.489 64.8766 52.2266C65.9155 51.7975 66.4885 50.6691 66.2505 49.5672L62.9918 34.5068L51.7825 28.8629Z" fill="url(#paint2_linear_146_910)"/>
<path d="M68.493 13.6551C68.6539 13.9499 72.1036 35.9206 72.1036 35.9206L59.5713 37.6321L53.2214 17.2964C53.2214 17.2964 65.7998 8.71528 68.4939 13.6551H68.493Z" fill="url(#paint3_linear_146_910)"/>
<path d="M57.8643 19.3197C57.5086 19.7582 57.374 20.3347 57.5001 20.8857L59.9721 31.6952C60.0098 31.8597 60.0672 32.0156 60.1481 32.1621C60.596 32.973 62.2296 35.4405 64.7026 33.6165C66.8095 32.061 68.7677 30.6613 70.4719 30.3769C71.4665 30.2106 72.399 30.908 72.5524 31.9088C72.8686 33.9709 73.4219 38.1462 73.3956 41.9245C73.389 42.8715 72.6494 43.6492 71.7083 43.7154C69.226 43.8912 64.3685 44.0877 60.3495 43.3638C59.6889 43.2448 59.1506 42.7732 58.9417 42.1324C58.0243 39.3143 55.4224 31.4278 54.3459 29.3146C53.3465 27.3518 50.436 27.0172 49.0913 26.9709C48.5803 26.953 48.1042 26.7252 47.7701 26.3377C46.767 25.1753 45.1984 22.584 48.2218 20.0522C48.9737 19.4228 49.0621 18.2859 48.4514 17.5185C47.3561 16.1425 46.4047 13.9206 48.7516 11.5939C51.1276 9.2379 53.8133 9.83517 55.5165 10.6319C56.2702 10.9844 57.2009 10.8313 57.7391 10.1962C57.9791 9.91361 58.3338 9.72177 58.8589 9.78225C59.8498 9.8966 60.7362 9.24262 60.8567 8.24842C61.0637 6.54355 61.9737 4.53814 64.9773 3.96449C70.4869 2.9117 73.2177 8.4535 73.1086 12.3433C72.9994 16.2332 66.961 17.0337 63.5385 16.3778C61.0242 15.8958 58.8429 18.1101 57.8624 19.3188L57.8643 19.3197Z" fill="#434343"/>
<path d="M55.3 33.3C55.3 33.3 55.2003 26.5145 52.4676 25.869C49.7349 25.2235 46.7792 27.2006 49.1063 31.27C52.0009 36.3317 55.3 33.3 55.3 33.3Z" fill="url(#paint4_linear_146_910)"/>
<path d="M29.9089 85.1806C26.2221 75.0468 27.5592 62.8093 27.5733 62.6864L28.5896 62.8026C28.5765 62.9227 27.2666 74.9258 30.8706 84.8271L29.9099 85.1796L29.9089 85.1806Z" fill="#0877DE"/>
<path d="M28.392 113.03C25.7054 115.91 21.7503 118.398 18.9669 119.95C23.1233 125.11 28.7486 130.278 36.1948 135.336L37.0953 137.366C37.8669 139.105 39.5532 140.258 41.4475 140.349C51.854 140.847 54.7335 138.63 45.1541 131.92C45.1541 131.92 32.9022 125.797 28.3929 113.03H28.392Z" fill="url(#paint5_linear_146_910)"/>
<path d="M104.904 67.6754C104.904 67.6754 91.7724 81.3853 88.7386 86.3582C85.7048 91.332 89.0821 100.389 95.974 98.2866C102.866 96.1839 110.889 72.3959 110.889 72.3959L104.904 67.6754Z" fill="url(#paint6_linear_146_910)"/>
<path d="M82.9241 48.2034C82.9241 48.2034 94.4637 78.7684 98.1101 85.1267C102.342 92.5076 114.702 87.8041 114.086 81.6272C113.471 75.4503 99.0313 49.9187 99.0313 49.9187L82.9241 48.2034Z" fill="#0057B3"/>
<path d="M98.5157 25.9389L170.239 0.963928L169.486 68.5495L96.5555 52.2067L98.5157 25.9389Z" fill="url(#paint7_linear_146_910)"/>
<path d="M170.307 69.6855C174.198 69.6855 177.353 54.1352 177.353 34.9528C177.353 15.7705 174.198 0.220184 170.307 0.220184C166.415 0.220184 163.26 15.7705 163.26 34.9528C163.26 54.1352 166.415 69.6855 170.307 69.6855Z" fill="#0057B3"/>
<path d="M170.842 67.3106C170.205 66.6604 168.818 64.1503 167.629 57.6616C166.479 51.3902 165.846 43.2561 165.846 34.7572C165.846 26.2583 166.48 18.1243 167.629 11.8529C168.818 5.36318 170.205 2.85406 170.842 2.20386C171.479 2.85406 172.866 5.36412 174.056 11.8529C175.206 18.1243 175.838 26.2583 175.838 34.7572C175.838 43.2561 175.205 51.3902 174.056 57.6616C172.866 64.1513 171.479 66.6604 170.842 67.3106Z" fill="url(#paint8_linear_146_910)"/>
<mask id="mask0_146_910" style="mask-type:luminance" maskUnits="userSpaceOnUse" x="165" y="2" width="20" height="66">
<path d="M170.842 67.3106C170.205 66.6604 168.818 64.1503 167.629 57.6616C166.479 51.3902 165.846 43.2561 165.846 34.7572C165.846 26.2583 166.48 18.1243 167.629 11.8529C168.818 5.36318 170.205 2.85406 170.842 2.20386C171.479 2.85406 172.866 5.36412 174.056 11.8529C175.206 18.1243 184.277 26.2583 184.277 34.7572C184.277 43.2561 175.206 51.3902 174.056 57.6616C172.866 64.1513 171.479 66.6604 170.842 67.3106Z" fill="white"/>
</mask>
<g mask="url(#mask0_146_910)">
<path d="M179.874 34.4983C179.874 40.4001 176.708 45.184 170.443 45.184C164.178 45.184 159.099 40.4001 159.099 34.4983C159.099 28.5964 164.178 23.8125 170.443 23.8125C176.708 23.8125 179.874 28.5964 179.874 34.4983Z" fill="#0057B3"/>
</g>
<path d="M86.9479 24.4864C90.3214 24.0932 95.16 23.9515 100.391 25.1545C98.6671 34.1959 98.9278 43.6209 100.921 53.3786H86.1659C83.8134 53.3786 81.8072 51.6624 81.4411 49.329C80.7062 44.651 79.8066 36.7891 80.7655 30.4752C81.2463 27.3064 83.7776 24.8559 86.9479 24.4864Z" fill="#0057B3"/>
<path d="M95.8028 31.5828H84.3075C83.8605 31.5828 83.4493 31.338 83.2357 30.943C83.0221 30.5489 83.0399 30.0688 83.2837 29.6917C83.4229 29.4744 83.7128 29.4129 83.9292 29.5528C84.1456 29.6936 84.2077 29.9837 84.0675 30.2011C83.9847 30.3306 84.0327 30.4487 84.0562 30.4941C84.0807 30.5394 84.1541 30.6443 84.3075 30.6443H95.8028C95.9609 30.6443 96.0889 30.5158 96.0889 30.357V29.5358C96.0889 29.377 95.9609 29.2485 95.8028 29.2485H84.2218C83.964 29.2485 83.7551 29.0387 83.7551 28.7797C83.7551 28.5208 83.964 28.311 84.2218 28.311H95.8028C96.4756 28.311 97.0223 28.861 97.0223 29.5358V30.357C97.0223 31.0328 96.4747 31.5818 95.8028 31.5818V31.5828Z" fill="#2F9EED"/>
<path d="M94.778 36.6965H83.2827C82.8357 36.6965 82.4245 36.4517 82.2118 36.0576C81.9982 35.6635 82.0161 35.1834 82.2589 34.8063C82.3991 34.588 82.688 34.5266 82.9044 34.6674C83.1208 34.8082 83.183 35.0984 83.0427 35.3157C82.959 35.4452 83.007 35.5643 83.0315 35.6087C83.0559 35.6531 83.1293 35.758 83.2827 35.758H94.778C94.9361 35.758 95.0641 35.6295 95.0641 35.4707V34.6495C95.0641 34.4907 94.9361 34.3622 94.778 34.3622H83.1971C82.9392 34.3622 82.7303 34.1524 82.7303 33.8934C82.7303 33.6345 82.9392 33.4247 83.1971 33.4247H94.778C95.4508 33.4247 95.9976 33.9738 95.9976 34.6495V35.4707C95.9976 36.1464 95.4499 36.6955 94.778 36.6955V36.6965Z" fill="#2F9EED"/>
<path opacity="0.52" d="M108.938 24.2813C108.741 24.2813 108.556 24.1537 108.493 23.9543C108.415 23.7076 108.551 23.444 108.796 23.3646L163.118 6.00392C163.364 5.92548 163.627 6.06251 163.706 6.30823C163.784 6.55489 163.648 6.81856 163.403 6.89794L109.08 24.2586C109.033 24.2737 108.985 24.2803 108.938 24.2803V24.2813Z" fill="white"/>
<path opacity="0.52" d="M101.415 27.1298C101.231 27.1298 101.056 27.0202 100.982 26.8378C100.884 26.5978 100.999 26.3246 101.238 26.2263L104.034 25.0791C104.273 24.9808 104.546 25.0961 104.643 25.3361C104.741 25.5761 104.626 25.8493 104.387 25.9476L101.591 27.0949C101.534 27.1185 101.473 27.1298 101.415 27.1298Z" fill="white"/>
<path d="M95.8027 42.6844H84.3074C83.8604 42.6844 83.4502 42.4396 83.2366 42.0446C83.023 41.6495 83.0408 41.1704 83.2836 40.7933C83.4238 40.575 83.7137 40.5136 83.9291 40.6544C84.1456 40.7952 84.2077 41.0853 84.0675 41.3027C83.9837 41.4322 84.0317 41.5512 84.0562 41.5957C84.0806 41.641 84.154 41.7459 84.3074 41.7459H95.8027C95.9608 41.7459 96.0888 41.6174 96.0888 41.4586V40.6374C96.0888 40.4795 95.9608 40.3501 95.8027 40.3501H84.2218C83.964 40.3501 83.7551 40.1403 83.7551 39.8813C83.7551 39.6224 83.964 39.4126 84.2218 39.4126H95.8027C96.4756 39.4126 97.0223 39.9626 97.0223 40.6374V41.4586C97.0223 42.1343 96.4746 42.6834 95.8027 42.6834V42.6844Z" fill="#2F9EED"/>
<path d="M96.8792 49.3309H85.3839C84.9369 49.3309 84.5266 49.0861 84.313 48.6911C84.0994 48.297 84.1173 47.8169 84.3601 47.4398C84.5003 47.2215 84.7892 47.1601 85.0056 47.3009C85.2221 47.4417 85.2842 47.7319 85.1439 47.9492C85.0602 48.0787 85.1082 48.1978 85.1327 48.2422C85.1571 48.2875 85.2305 48.3924 85.3839 48.3924H96.8792C97.0364 48.3924 97.1653 48.2639 97.1653 48.1052V47.2839C97.1653 47.1261 97.0373 46.9966 96.8792 46.9966H85.2983C85.0404 46.9966 84.8315 46.7868 84.8315 46.5279C84.8315 46.2689 85.0404 46.0591 85.2983 46.0591H96.8792C97.552 46.0591 98.0988 46.6082 98.0988 47.2839V48.1052C98.0988 48.7809 97.552 49.3299 96.8792 49.3299V49.3309Z" fill="#2F9EED"/>
<path d="M107.147 85.4698C106.605 85.4698 106.058 85.4112 105.511 85.2912C103.12 84.7676 101.174 83.1847 100.171 80.9477L90.9866 60.4551C90.8813 60.2189 90.9866 59.942 91.221 59.8352C91.4553 59.7293 91.7329 59.8352 91.8383 60.0705L101.022 80.5621C101.902 82.526 103.611 83.9152 105.71 84.3745C107.77 84.8253 109.858 84.2894 111.433 82.9049C111.518 82.8293 111.605 82.7518 111.691 82.6724C111.881 82.4976 112.176 82.5108 112.35 82.7017C112.524 82.8926 112.511 83.1894 112.321 83.3642C112.229 83.4493 112.139 83.5306 112.047 83.6109C110.665 84.8253 108.939 85.4689 107.147 85.4689L107.147 85.4698Z" fill="white"/>
<path d="M90.055 57.7022C89.8772 57.7022 89.7069 57.5992 89.6288 57.4253L88.604 55.1392C88.4986 54.9029 88.604 54.6251 88.8383 54.5193C89.0726 54.4134 89.3502 54.5193 89.4556 54.7546L90.4804 57.0407C90.5858 57.2769 90.4804 57.5548 90.2461 57.6606C90.184 57.689 90.119 57.7022 90.055 57.7022Z" fill="white"/>
<path d="M178.193 34.3622C177.951 34.3622 177.745 34.1732 177.728 33.9265C177.528 31.0885 176.554 28.9763 174.834 27.6466C171.853 25.3435 167.563 26.1317 167.519 26.1412C167.265 26.1893 167.021 26.023 166.972 25.7688C166.924 25.5146 167.089 25.2689 167.342 25.2197C167.534 25.1829 172.078 24.3399 175.397 26.8991C177.341 28.3979 178.439 30.7398 178.659 33.8594C178.677 34.1174 178.484 34.3423 178.226 34.3603C178.215 34.3603 178.204 34.3612 178.192 34.3612L178.193 34.3622Z" fill="white"/>
<path d="M99.9319 59.7936C99.9319 59.7936 103.673 56.604 106.597 59.7936C109.521 62.9832 110.099 68.5495 109.504 68.8208C108.909 69.0929 90.8305 64.5841 99.9319 59.7936Z" fill="url(#paint9_linear_146_910)"/>
<rect y="170" width="193" height="2" fill="#FFAA1A"/>
</g>
<defs>
<linearGradient id="paint0_linear_146_910" x1="63.93" y1="74.4427" x2="99.4286" y2="74.4427" gradientUnits="userSpaceOnUse">
<stop stop-color="#2E9DEF"/>
<stop offset="0.708153" stop-color="#2791E0"/>
</linearGradient>
<linearGradient id="paint1_linear_146_910" x1="8.75562" y1="93.5582" x2="85.234" y2="93.5582" gradientUnits="userSpaceOnUse">
<stop stop-color="#2E9DEF"/>
<stop offset="1" stop-color="#268FDE"/>
</linearGradient>
<linearGradient id="paint2_linear_146_910" x1="48.6005" y1="19.4652" x2="60.1068" y2="54.7828" gradientUnits="userSpaceOnUse">
<stop stop-color="#FFB5B2"/>
<stop offset="1" stop-color="#FEB3B1"/>
</linearGradient>
<linearGradient id="paint3_linear_146_910" x1="64.1934" y1="16.2036" x2="58.0046" y2="58.0586" gradientUnits="userSpaceOnUse">
<stop stop-color="#FFABA8"/>
<stop offset="1" stop-color="#FEB3B1"/>
</linearGradient>
<linearGradient id="paint4_linear_146_910" x1="583.367" y1="447.005" x2="612.61" y2="469.769" gradientUnits="userSpaceOnUse">
<stop stop-color="#FFB1AE"/>
<stop offset="1" stop-color="#FEB3B1"/>
</linearGradient>
<linearGradient id="paint5_linear_146_910" x1="18.9669" y1="126.723" x2="50.9958" y2="126.723" gradientUnits="userSpaceOnUse">
<stop stop-color="#FFAEAB"/>
<stop offset="1" stop-color="#FEB3B1"/>
</linearGradient>
<linearGradient id="paint6_linear_146_910" x1="93.9402" y1="75.1977" x2="105.484" y2="92.0097" gradientUnits="userSpaceOnUse">
<stop stop-color="#FFB0AD"/>
<stop offset="1" stop-color="#FEB3B1"/>
</linearGradient>
<linearGradient id="paint7_linear_146_910" x1="96.5555" y1="34.7567" x2="170.239" y2="34.7567" gradientUnits="userSpaceOnUse">
<stop stop-color="#FF9C00"/>
<stop offset="1" stop-color="#FFAA1A"/>
</linearGradient>
<linearGradient id="paint8_linear_146_910" x1="165.846" y1="34.7572" x2="175.838" y2="34.7572" gradientUnits="userSpaceOnUse">
<stop stop-color="#FF9C00"/>
<stop offset="1" stop-color="#FFAA1A"/>
</linearGradient>
<linearGradient id="paint9_linear_146_910" x1="149.464" y1="6.40464" x2="127.512" y2="34.3085" gradientUnits="userSpaceOnUse">
<stop stop-color="#FF928E"/>
<stop offset="1" stop-color="#FEB3B1"/>
</linearGradient>
<clipPath id="clip0_146_910">
<rect width="193" height="172" fill="white"/>
</clipPath>
</defs>
</svg>
