<svg width="18" height="19" viewBox="0 0 18 19" fill="none" xmlns="http://www.w3.org/2000/svg">
<path d="M16.5556 12.3149C15.4536 12.3149 14.3716 12.1426 13.3462 11.8037C12.8437 11.6323 12.226 11.7896 11.9194 12.1045L9.89547 13.6324C7.54831 12.3794 6.1025 10.9341 4.86669 8.60456L6.34958 6.63337C6.73484 6.24862 6.87303 5.68659 6.70747 5.15925C6.36716 4.12847 6.19428 3.04693 6.19428 1.94443C6.19433 1.14798 5.54638 0.500031 4.74997 0.500031H1.44436C0.647951 0.500031 0 1.14798 0 1.94439C0 11.0733 7.42676 18.5 16.5556 18.5C17.352 18.5 18 17.852 18 17.0556V13.7592C18 12.9629 17.352 12.3149 16.5556 12.3149Z" fill="#B3B3B3"/>
</svg>
