<svg width="1089" height="413" viewBox="0 0 1089 413" fill="none" xmlns="http://www.w3.org/2000/svg">
<path opacity="0.3" d="M219.877 65.3012C134.01 135.043 225.768 176.524 166.302 215.607C106.836 254.686 -139.443 380.906 108.569 532.114C356.581 683.323 369.129 756.75 546.174 661.008C723.219 565.267 704.771 574.827 850.465 639.551C996.164 704.274 1148.44 603.575 1096.67 484.064C1044.89 364.553 1011.93 366.043 1071.05 289.721C1130.17 213.4 1036.86 -25.5916 823.718 124.907C746.653 179.32 626.741 154.559 540.68 69.6911C494.088 23.739 355.58 -44.9079 219.877 65.3062V65.3012Z" fill="#D4E7F1"/>
<path d="M602.989 333.925C602.816 331.774 600.623 329.916 596.917 328.426C600.949 326.198 603.18 323.81 602.989 321.471C602.417 314.386 580.023 310.415 552.967 312.6C525.911 314.785 504.44 322.3 505.011 329.386C505.184 331.536 507.377 333.395 511.083 334.885C507.051 337.112 504.82 339.501 505.011 341.84C505.184 343.99 507.377 345.849 511.083 347.339C507.051 349.566 504.82 351.955 505.011 354.293C505.184 356.444 507.377 358.303 511.083 359.793C507.051 362.02 504.82 364.409 505.011 366.747C505.264 369.881 509.792 372.404 517.094 374.055C516.998 376.371 517.052 378.909 517.278 381.709C518.336 394.762 532.995 405 552.38 405C571.766 405 588.544 391.045 588.736 377.949C588.782 374.739 588.648 371.916 588.357 369.405C597.633 366.302 603.284 362.512 602.985 358.836C602.812 356.686 600.62 354.827 596.913 353.337C600.945 351.11 603.176 348.721 602.985 346.383C602.812 344.232 600.62 342.373 596.913 340.883C600.945 338.656 603.176 336.267 602.985 333.929L602.989 333.925Z" fill="#0057B3"/>
<path d="M540.536 381C532.303 381 524.768 380.418 518.542 379.27C518.18 379.202 517.945 378.869 518.011 378.522C518.082 378.174 518.428 377.947 518.789 378.011C528.531 379.806 541.542 380.199 555.425 379.122C566.786 378.242 577.412 376.478 586.148 374.026C586.502 373.927 586.871 374.12 586.973 374.46C587.076 374.8 586.875 375.155 586.522 375.253C577.695 377.732 566.982 379.508 555.531 380.395C550.373 380.796 545.333 380.992 540.532 380.992L540.536 381Z" fill="#1B6FC9"/>
<path d="M538.346 368C527.704 368 518.192 366.972 511.482 365.007C511.13 364.903 510.927 364.53 511.024 364.164C511.126 363.802 511.49 363.594 511.841 363.694C521.401 366.494 536.795 367.357 553.021 366.016C569.072 364.686 584.04 361.34 593.06 357.062C593.392 356.906 593.787 357.054 593.939 357.396C594.092 357.737 593.947 358.143 593.615 358.3C584.458 362.638 569.322 366.032 553.127 367.373C548.074 367.791 543.095 367.996 538.342 367.996L538.346 368Z" fill="#1B6FC9"/>
<path d="M538.922 355C527.369 355 517.261 353.682 510.457 351.182C510.108 351.055 509.919 350.634 510.033 350.245C510.147 349.855 510.524 349.645 510.874 349.772C520.341 353.253 536.392 354.396 553.81 352.828C569.939 351.379 584.985 347.731 594.055 343.068C594.389 342.897 594.786 343.059 594.939 343.431C595.092 343.804 594.947 344.246 594.613 344.417C585.409 349.15 570.195 352.846 553.916 354.308C548.758 354.772 543.714 355 538.918 355H538.922Z" fill="#1B6FC9"/>
<path d="M536.41 341C527.278 341 518.975 340.234 512.52 338.751C512.164 338.67 511.937 338.301 512.015 337.932C512.094 337.564 512.45 337.328 512.806 337.41C522.514 339.642 536.492 340.222 551.16 338.998C567.091 337.669 582.005 334.33 591.059 330.062C591.392 329.904 591.787 330.058 591.94 330.403C592.093 330.747 591.944 331.156 591.611 331.31C582.428 335.639 567.346 339.022 551.269 340.368C546.188 340.793 541.19 341 536.414 341H536.41Z" fill="#1B6FC9"/>
<path d="M486.297 270.774C483.008 259.138 477.419 248.261 469.892 238.791C453.764 218.494 427.457 177.221 424.217 120.891C419.508 38.9552 492.285 -2.06828 558.694 3.50039C625.103 9.06906 690.634 58.4436 683.46 134.669C679.046 181.571 652.754 217.149 633.179 237.576C620.747 250.549 611.881 266.439 607.083 283.743C601.206 304.921 587.228 331.312 554 332.922C511.004 335.003 493.144 294.984 486.297 270.77V270.774Z" fill="url(#paint0_linear_148_1099)"/>
<path d="M565.053 316.561L588.65 165.756C589.137 162.642 590.696 160.548 592.135 161.084C593.573 161.62 594.341 164.577 593.854 167.694C593.842 167.778 593.822 167.878 593.811 167.962L566.932 317.365C566.729 318.487 566.149 319.199 565.634 318.95C565.135 318.709 564.882 317.652 565.053 316.564V316.561Z" fill="#FFD16D"/>
<path d="M540.946 318.545L517.35 166.786C516.863 163.653 515.304 161.545 513.865 162.084C512.427 162.624 511.659 165.599 512.146 168.736C512.158 168.821 512.178 168.921 512.189 169.006L539.068 319.354C539.27 320.484 539.851 321.201 540.366 320.95C540.865 320.707 541.118 319.644 540.946 318.549V318.545Z" fill="#FFD16D"/>
<path d="M587.735 153.236C587.148 152.29 585.794 151.934 584.704 152.447L571.85 158.478L567.389 145.711C567.153 145.044 566.608 144.455 565.826 144.133C564.346 143.52 562.577 144.068 561.876 145.355L561.853 145.397L551.283 164.755L541.472 137.198L541.457 137.152C541.217 136.478 540.71 135.877 539.974 135.471C538.33 134.571 536.157 135 535.12 136.432L520.341 156.862C519.738 157.701 519.948 158.823 520.863 159.439C521.839 160.102 523.246 159.945 524.005 159.095L537.015 144.516L548.728 170.729L548.736 170.748C548.923 171.169 549.278 171.533 549.769 171.763C550.868 172.28 552.24 171.924 552.835 170.966L564.14 152.746L568.396 161.959L568.434 162.04C568.464 162.105 568.499 162.17 568.541 162.235C569.128 163.181 570.481 163.533 571.568 163.024L586.824 155.863C587.911 155.353 588.319 154.17 587.731 153.224L587.735 153.236Z" fill="white"/>
<g opacity="0.72">
<path d="M639.966 217.702C639.359 217.702 638.747 217.516 638.226 217.124C636.927 216.161 636.658 214.33 637.622 213.033C641.885 207.293 645.801 201.355 649.25 195.383C650.06 193.987 651.851 193.503 653.248 194.313C654.646 195.119 655.13 196.908 654.319 198.309C650.759 204.474 646.719 210.603 642.319 216.524C641.745 217.297 640.864 217.706 639.966 217.706V217.702Z" fill="white"/>
</g>
<path d="M455.087 128.321C455.463 128.569 455.955 128.552 456.311 128.279L466.512 120.486C472.132 122.573 478.124 123.779 484.293 123.969L490.793 135.023C491.021 135.412 491.472 135.61 491.91 135.523L507.003 132.474C507.445 132.383 507.78 132.027 507.838 131.581L509.538 118.874C515.149 116.308 520.202 112.87 524.569 108.767L536.995 111.99C537.429 112.101 537.888 111.928 538.14 111.552L546.658 98.7291C546.906 98.3531 546.89 97.8613 546.617 97.506L538.818 87.3156C540.906 81.6998 542.118 75.712 542.304 69.5466L553.365 63.0506C553.754 62.8233 553.953 62.3729 553.866 61.9349L550.814 46.8519C550.723 46.4097 550.367 46.075 549.921 46.0171L537.205 44.3187C534.638 38.7112 531.197 33.6615 527.087 29.2977L530.312 16.8801C530.424 16.4462 530.25 15.9875 529.874 15.7354L517.043 7.22283C516.667 6.97489 516.175 6.99142 515.819 7.26416L505.622 15.0577C500.002 12.9709 494.011 11.7643 487.841 11.5742L481.341 0.520195C481.113 0.131757 480.663 -0.0665916 480.224 0.0201873L465.131 3.06985C464.689 3.16076 464.354 3.51614 464.296 3.96243L462.596 16.6693C456.985 19.2355 451.932 22.6736 447.565 26.777L435.14 23.5538C434.705 23.4422 434.246 23.6158 433.994 23.9918L425.476 36.8144C425.228 37.1905 425.244 37.6822 425.517 38.0376L433.316 48.2279C431.228 53.8438 430.02 59.8315 429.83 65.9969L418.769 72.493C418.38 72.7202 418.182 73.1707 418.268 73.6087L421.32 88.6917C421.411 89.1339 421.767 89.4686 422.213 89.5264L434.929 91.2248C437.497 96.8324 440.937 101.882 445.043 106.246L441.818 118.663C441.706 119.097 441.88 119.556 442.256 119.808L455.087 128.321Z" fill="#BDDEF2"/>
<path d="M478.876 54.6951C481.212 53.4058 483.921 52.7281 486.778 52.8645C490.764 53.0546 494.436 54.786 497.116 57.7365C499.799 60.687 501.172 64.5052 500.978 68.4888C500.585 76.708 493.572 83.0759 485.343 82.6833C481.357 82.4933 477.685 80.7618 475.006 77.8113C472.322 74.8609 470.949 71.0426 471.143 67.059C471.4 61.6911 474.48 57.1166 478.876 54.6951ZM492.034 78.6419C495.685 76.6295 498.245 72.8277 498.46 68.369C498.617 65.059 497.48 61.8853 495.251 59.4349C493.022 56.9844 489.97 55.5464 486.658 55.3852C479.823 55.0587 473.997 60.3481 473.666 67.1789C473.509 70.4889 474.646 73.6625 476.875 76.113C479.103 78.5634 482.155 80.0015 485.467 80.1626C487.841 80.2742 490.094 79.7122 492.034 78.6419Z" fill="white"/>
<path d="M467.74 33.8805C468.865 33.2606 470.027 32.6945 471.226 32.1862C473.575 31.1862 476.06 30.4093 478.661 29.8845C495.503 26.4836 512.044 34.7028 519.929 49.0007C521.765 52.3313 523.134 55.9926 523.928 59.9141C525.958 69.9681 523.953 80.208 518.279 88.7536C512.606 97.2952 503.939 103.122 493.878 105.155C487.051 106.535 479.993 106.039 473.463 103.725L474.307 101.349C480.406 103.51 487.002 103.973 493.382 102.684C502.781 100.787 510.877 95.3447 516.179 87.3611C521.48 79.3774 523.357 69.8111 521.455 60.4183C520.715 56.7529 519.437 53.3355 517.721 50.2197C510.352 36.8599 494.9 29.182 479.166 32.3598C459.764 36.2772 447.173 55.2363 451.093 74.6252C451.237 75.3401 451.403 76.055 451.593 76.7575C451.928 78.0137 452.329 79.2534 452.796 80.4601C452.805 80.4849 452.817 80.5138 452.825 80.5386C452.887 80.6997 452.953 80.8651 453.02 81.0262C453.14 81.3237 453.264 81.6171 453.392 81.9064L451.08 82.9147C449.993 80.427 449.166 77.803 448.624 75.1211C445.221 58.2901 453.446 41.7608 467.753 33.8805H467.74Z" fill="white"/>
<path d="M172.767 147.339C172.949 147.579 173.268 147.678 173.553 147.583L181.736 144.868C184.846 147.422 188.39 149.504 192.26 150.971L193.968 159.414C194.03 159.711 194.27 159.934 194.567 159.976L204.818 161.343C205.116 161.385 205.41 161.228 205.546 160.959L209.408 153.261C213.531 152.86 217.496 151.781 221.168 150.132L228.351 154.901C228.603 155.066 228.934 155.058 229.174 154.872L237.39 148.595C237.63 148.413 237.729 148.095 237.634 147.81L234.917 139.632C237.477 136.525 239.557 132.983 241.025 129.111L249.473 127.405C249.771 127.347 249.994 127.103 250.035 126.805L251.404 116.561C251.445 116.264 251.288 115.97 251.019 115.834L243.316 111.975C242.915 107.855 241.835 103.892 240.186 100.222L244.953 93.0443C245.119 92.7922 245.11 92.4617 244.924 92.222L238.643 84.0111C238.461 83.7714 238.143 83.6722 237.857 83.7672L229.674 86.4822C226.565 83.9243 223.021 81.8498 219.146 80.3787L217.443 71.9364C217.385 71.6389 217.141 71.4157 216.843 71.3744L206.592 70.0066C206.295 69.9653 206.001 70.1223 205.864 70.3909L202.002 78.0894C197.88 78.4903 193.914 79.5688 190.242 81.2176L183.06 76.4489C182.807 76.2836 182.477 76.2919 182.237 76.4778L174.02 82.7548C173.78 82.9366 173.681 83.2548 173.776 83.54L176.493 91.7178C173.933 94.8254 171.858 98.3668 170.386 102.239L161.938 103.945C161.64 104.003 161.417 104.247 161.375 104.545L160.007 114.789C159.965 115.086 160.122 115.38 160.391 115.516L168.095 119.376C168.496 123.495 169.575 127.458 171.225 131.128L166.453 138.306C166.288 138.558 166.296 138.888 166.482 139.128L172.763 147.339H172.767Z" fill="#BDDEF2"/>
<path d="M203.88 105.012C205.827 104.673 207.837 104.879 209.723 105.631C212.406 106.702 214.511 108.751 215.652 111.408C216.793 114.061 216.831 116.999 215.756 119.681C213.543 125.215 207.237 127.921 201.696 125.71C199.013 124.64 196.908 122.591 195.767 119.933C194.63 117.28 194.592 114.342 195.663 111.661C196.734 108.979 198.789 106.875 201.444 105.739C202.234 105.4 203.053 105.156 203.88 105.016V105.012ZM206.985 123.107C209.487 122.673 211.712 120.995 212.72 118.471C213.469 116.599 213.444 114.549 212.646 112.694C211.852 110.842 210.38 109.408 208.507 108.66C206.634 107.912 204.583 107.937 202.726 108.735C200.874 109.528 199.439 110.999 198.69 112.871C197.942 114.743 197.967 116.793 198.765 118.648C199.559 120.5 201.031 121.933 202.904 122.681C204.248 123.219 205.654 123.338 206.981 123.111L206.985 123.107Z" fill="white"/>
<path d="M201.365 89.3666C202.246 89.2137 203.144 89.1063 204.045 89.0443C204.053 89.0443 204.057 89.0443 204.062 89.0443C205.815 88.9245 207.605 88.9782 209.412 89.2179C221.197 90.7923 230.166 99.8999 232.097 111.032C232.548 113.628 232.614 116.33 232.25 119.074C231.312 126.111 227.685 132.359 222.041 136.669C216.396 140.979 209.412 142.835 202.37 141.897C197.59 141.26 193.083 139.343 189.332 136.355L191.367 133.802C194.654 136.421 198.607 138.099 202.8 138.661C208.974 139.483 215.102 137.855 220.052 134.074C225.002 130.293 228.181 124.814 229.008 118.644C229.331 116.235 229.269 113.863 228.876 111.59C227.181 101.826 219.316 93.8337 208.978 92.4535C196.23 90.751 184.474 99.7346 182.77 112.47C182.563 114.033 182.51 115.615 182.617 117.173C182.621 117.26 182.629 117.347 182.638 117.433L179.383 117.69C179.235 115.818 179.284 113.913 179.536 112.037C179.557 111.888 179.578 111.739 179.598 111.59C181.343 100.032 190.366 91.2716 201.365 89.3666Z" fill="white"/>
<path d="M915.813 126.901C916.078 127.074 916.421 127.062 916.669 126.872L923.815 121.413C927.751 122.876 931.952 123.723 936.269 123.855L940.826 131.599C940.988 131.872 941.302 132.013 941.608 131.951L952.181 129.814C952.491 129.752 952.727 129.5 952.768 129.19L953.959 120.285C957.888 118.487 961.431 116.078 964.491 113.202L973.196 115.463C973.502 115.541 973.824 115.417 973.998 115.157L979.965 106.173C980.138 105.909 980.126 105.566 979.936 105.318L974.473 98.1771C975.937 94.2431 976.785 90.0447 976.917 85.7305L984.666 81.1767C984.939 81.0155 985.08 80.7015 985.018 80.3957L982.88 69.8293C982.818 69.5194 982.566 69.2839 982.251 69.2426L973.34 68.0524C971.542 64.1267 969.131 60.5853 966.253 57.5274L968.515 48.8288C968.593 48.5231 968.469 48.2007 968.209 48.0272L959.219 42.0642C958.954 41.8907 958.611 41.9031 958.363 42.0932L951.218 47.5519C947.281 46.0891 943.08 45.242 938.763 45.1098L934.206 37.3658C934.045 37.093 933.73 36.9525 933.424 37.0145L922.851 39.1509C922.541 39.2129 922.305 39.465 922.264 39.7791L921.073 48.6842C917.145 50.4818 913.601 52.8909 910.541 55.767L901.837 53.5066C901.531 53.4281 901.208 53.5521 901.034 53.8124L895.068 62.7961C894.894 63.0606 894.906 63.4036 895.097 63.6515L900.559 70.7922C899.095 74.7262 898.247 78.9246 898.115 83.2388L890.366 87.7926C890.093 87.9537 889.952 88.2678 890.015 88.5736L892.152 99.1399C892.214 99.4499 892.467 99.6854 892.781 99.7267L901.692 100.917C903.491 104.843 905.901 108.384 908.779 111.442L906.518 120.14C906.439 120.446 906.563 120.769 906.824 120.942L915.813 126.905V126.901Z" fill="#BDDEF2"/>
<path d="M932.085 74.5899C933.892 73.594 935.943 73.1146 938.056 73.2179C941.066 73.3626 943.841 74.6684 945.867 76.8998C947.893 79.1272 948.931 82.0157 948.786 85.024C948.489 91.2308 943.188 96.0449 936.977 95.7474C933.966 95.6028 931.192 94.2969 929.165 92.0655C927.139 89.834 926.101 86.9497 926.246 83.9413C926.391 80.933 927.698 78.1602 929.93 76.1354C930.596 75.532 931.32 75.0155 932.085 74.594V74.5899ZM941.306 91.3754C943.626 90.0985 945.247 87.6852 945.383 84.8546C945.482 82.7553 944.759 80.7388 943.345 79.185C941.93 77.6271 939.995 76.7139 937.89 76.6147C935.79 76.5155 933.776 77.2387 932.217 78.6519C930.662 80.0652 929.749 81.9991 929.645 84.1025C929.546 86.2017 930.27 88.2183 931.684 89.7721C933.098 91.3258 935.033 92.239 937.134 92.3423C938.639 92.4126 940.07 92.0572 941.302 91.3795L941.306 91.3754Z" fill="white"/>
<path d="M924.282 60.0152C925.101 59.5647 925.944 59.1515 926.817 58.7837C926.825 58.7837 926.829 58.7837 926.833 58.7796C928.52 58.0647 930.303 57.5068 932.167 57.1349C944.325 54.6803 956.267 60.6143 961.961 70.9369C963.288 73.3419 964.276 75.9866 964.847 78.8173C966.315 86.0736 964.868 93.4705 960.77 99.6359C956.672 105.805 950.415 110.008 943.154 111.475C938.225 112.471 933.127 112.116 928.413 110.442L929.55 107.231C933.681 108.694 938.151 109.008 942.476 108.136C948.844 106.851 954.336 103.161 957.929 97.7516C961.522 92.3424 962.792 85.8546 961.506 79.4908C961.005 77.0073 960.137 74.689 958.975 72.5774C953.98 63.5235 943.506 58.3209 932.841 60.4697C919.692 63.1268 911.157 75.9783 913.812 89.115C914.139 90.7266 914.626 92.301 915.259 93.8052C915.296 93.8879 915.329 93.9746 915.367 94.0573L912.245 95.4168C911.459 93.6192 910.864 91.7266 910.471 89.7927C910.438 89.6398 910.409 89.4828 910.38 89.3299C908.163 77.342 914.081 65.6351 924.282 60.0193V60.0152Z" fill="white"/>
<path d="M811.337 194.313C811.337 194.313 819.648 198.355 821.178 202.995C822.407 206.719 831.595 207.198 832.504 214.525C832.972 218.306 835.775 221.335 839.542 221.913C848.929 223.351 863.398 228.223 865.713 244.513C867.479 256.947 861.14 261.658 854.482 263.29C849.595 264.489 846.344 269.241 847.333 274.171C848.28 278.902 846.865 284.369 838.666 288.696C820.289 298.386 801.934 265.737 801.934 265.737L798.171 208.727L811.337 194.313Z" fill="#0057B3"/>
<path d="M758.888 177.185C758.888 177.185 772.36 213.888 795.318 225.36C795.318 225.36 787.676 237.819 783.69 238.575C783.69 238.575 759.165 207.206 756.667 181.511L758.888 177.185Z" fill="url(#paint1_linear_148_1099)"/>
<path d="M851.211 397.971L851.889 403.537C852.018 404.595 852.849 405.43 853.907 405.55C855.694 405.752 858.559 405.963 861.363 405.666C862.595 405.537 863.393 404.289 863.017 403.112C862.335 400.963 861.082 397.736 859.279 395.839H853.101C851.96 395.839 851.075 396.839 851.211 397.971Z" fill="#434343"/>
<path d="M802.815 332.763L801.773 338.895C801.773 338.895 805.267 374.247 805.887 388.388C805.986 390.607 805.411 392.797 804.245 394.686L798.171 404.541L813.603 395.442L813.909 393.562L811.382 390.091L814.691 350.486C814.885 348.16 814.405 345.825 813.305 343.767L810.113 337.775L802.806 332.771L802.815 332.763Z" fill="url(#paint2_linear_148_1099)"/>
<path d="M797.158 405.967H802.083C803.005 405.967 803.873 405.546 804.435 404.814C805.97 402.822 809.154 398.93 810.671 398.831C812.718 398.694 812.458 405.967 812.458 405.967H813.607L815.063 396.926C815.427 394.653 814.298 392.397 812.251 391.33C812.251 391.33 811.784 394.789 809.245 396.318C806.706 397.847 798.915 403.327 798.915 403.327C798.915 403.327 797.96 403.19 796.914 403.38C795.359 403.661 795.578 405.959 797.158 405.959V405.967Z" fill="#434343"/>
<path d="M823.957 335.676C823.957 335.676 844.417 374.462 847.668 383.318C850.922 392.173 852.059 399.562 852.105 400.26C852.171 401.355 853.531 402.401 857.282 402.401C859.217 402.401 860.164 401.624 860.627 400.876C861.024 400.236 861.045 399.434 860.71 398.76C859.527 396.368 855.768 388.719 854.379 385.248C852.717 381.107 849.144 362.334 847.188 355.805C845.228 349.28 843.016 342.197 834.481 335.676C834.481 335.676 828.626 329.945 823.953 335.676H823.957Z" fill="url(#paint3_linear_148_1099)"/>
<path d="M811.031 272.125C805.755 249.777 819.123 237.137 819.123 237.137C810.688 229.046 795.318 225.364 795.318 225.364C795.318 225.364 780.651 236.079 782.391 244.467C783.413 249.385 792.7 273.914 792.7 273.914C792.7 273.914 801.289 277.976 811.031 272.129V272.125Z" fill="#434343"/>
<path d="M822.733 283.187C820.587 276.72 811.031 272.121 811.031 272.121C801.289 277.968 792.7 273.906 792.7 273.906C792.7 273.906 790.773 281.266 792.105 288.105C793.436 294.944 801.777 338.891 801.777 338.891C814.922 341.552 835.138 336.213 835.138 336.213C826.765 321.358 824.888 289.65 822.737 283.187H822.733Z" fill="#FFAA1A"/>
<path d="M804.907 210.591L809.199 229.852C809.608 231.55 808.062 231.269 806.346 230.947C803.534 230.418 799.912 229.327 798.7 227.141C798.576 226.918 798.514 226.665 798.481 226.413L796.637 213.058C796.492 212 797.062 210.971 798.042 210.537L801.599 208.963C802.967 208.355 804.555 209.136 804.907 210.591Z" fill="url(#paint4_linear_148_1099)"/>
<path d="M799.87 192.251C799.87 192.251 794.788 194.396 791.331 201.735C787.874 209.074 790.455 212.463 793.697 212.925C796.939 213.392 801.785 213.318 806.912 208.578C812.04 203.838 806.474 189.706 799.866 192.251H799.87Z" fill="url(#paint5_linear_148_1099)"/>
<path d="M803.468 204.665C803.468 204.665 807.301 193.929 797.778 193.801L795.537 195.367C795.537 195.367 792.043 189.412 797.778 186.573C803.513 183.73 810.229 186.078 812.668 193.801C815.108 201.524 815.526 206.694 811.465 210.388C807.404 214.082 805.73 209.892 805.73 209.892C805.73 209.892 807.942 206.438 807.04 204.586C806.139 202.739 804.063 204.971 804.063 204.971L803.468 204.665Z" fill="#0057B3"/>
<path d="M803.451 206.566C803.451 206.566 805.391 201.037 807.975 203.239C810.56 205.442 805.874 208.347 804.038 209.289L803.451 206.566Z" fill="url(#paint6_linear_148_1099)"/>
<path d="M757.593 183.867C757.387 184.52 759.768 185.516 761.17 182.842C761.22 181.561 761.997 176.078 761.232 175.036C757.155 169.482 752.85 169.123 752.85 169.123C752.048 170.569 751.072 171.792 750.613 173.544C750.266 174.871 750.477 176.288 751.151 177.495C751.825 178.706 752.743 180.28 753.611 181.516C755.253 183.85 757.598 183.867 757.598 183.867H757.593Z" fill="url(#paint7_linear_148_1099)"/>
<path d="M821.497 243.083C821.497 243.083 782.247 290.977 752.921 236.443C752.921 236.443 752.358 235.05 752.71 233.038C752.888 232.021 752.214 228.418 751.846 226.575C751.726 225.984 752.147 225.422 752.751 225.364C753.223 225.318 753.686 225.517 753.975 225.889L759.33 232.707C759.731 234.058 759.086 235.496 757.813 236.1C757.002 236.484 756.746 237.513 757.291 238.228C779.592 267.443 816.894 235.385 817.577 235.761C820 237.095 822.795 238.575 821.497 243.083Z" fill="url(#paint8_linear_148_1099)"/>
<path d="M621.769 136.787C621.273 137.081 621.016 137.655 621.132 138.217L624.419 154.288C618.882 159.585 614.152 165.8 610.497 172.788L594.147 174.102C593.572 174.148 593.092 174.553 592.947 175.111L588.043 194.165C587.898 194.723 588.126 195.309 588.606 195.623L602.293 204.657C602.123 212.537 603.264 220.264 605.555 227.575L594.92 240.067C594.548 240.505 594.494 241.129 594.787 241.624L604.803 258.563C605.096 259.059 605.671 259.315 606.233 259.199L622.315 255.914C627.616 261.447 633.839 266.175 640.827 269.828L642.142 286.167C642.188 286.741 642.593 287.221 643.151 287.365L662.218 292.266C662.776 292.411 663.363 292.183 663.678 291.704L672.717 278.03C680.603 278.2 688.335 277.059 695.65 274.77L708.15 285.398C708.589 285.77 709.213 285.824 709.709 285.53L726.659 275.522C727.155 275.229 727.407 274.654 727.296 274.092L724.008 258.022C729.545 252.724 734.276 246.509 737.931 239.521L754.281 238.207C754.856 238.162 755.336 237.757 755.48 237.199L760.385 218.145C760.529 217.587 760.302 217 759.822 216.686L746.135 207.653C746.305 199.772 745.163 192.045 742.873 184.735L753.508 172.243C753.88 171.805 753.934 171.181 753.64 170.685L743.625 153.746C743.332 153.251 742.757 152.998 742.194 153.11L726.113 156.395C720.812 150.862 714.589 146.135 707.6 142.482L706.285 126.142C706.24 125.568 705.835 125.089 705.277 124.944L686.21 120.043C685.651 119.899 685.064 120.126 684.75 120.605L675.711 134.279C667.825 134.11 660.093 135.25 652.778 137.539L640.277 126.911C639.839 126.539 639.215 126.485 638.718 126.779L621.769 136.787Z" fill="#BDDEF2"/>
<path d="M674.176 224.88C671.15 224.88 668.081 224.149 665.241 222.599C656.164 217.657 652.806 206.256 657.752 197.189C660.146 192.797 664.112 189.598 668.913 188.185C673.713 186.772 678.779 187.313 683.174 189.706C687.57 192.098 690.771 196.061 692.185 200.859C693.599 205.661 693.057 210.723 690.663 215.115C687.264 221.343 680.822 224.88 674.176 224.88ZM674.23 189.937C672.692 189.937 671.145 190.156 669.628 190.607C665.472 191.83 662.04 194.594 659.968 198.396C655.689 206.243 658.596 216.107 666.448 220.384C674.301 224.661 684.171 221.756 688.451 213.909C690.522 210.107 690.994 205.727 689.77 201.574C688.546 197.421 685.779 193.991 681.975 191.921C679.56 190.607 676.91 189.937 674.234 189.937H674.23Z" fill="white"/>
<path d="M674.387 255.269C670.376 255.269 666.307 254.769 662.247 253.728C649.631 250.484 639.037 242.525 632.408 231.319C627.913 223.711 625.61 215.227 625.606 206.62C625.606 202.545 626.119 198.442 627.165 194.392C629.365 185.838 633.839 178.053 640.095 171.879L641.869 173.673C635.935 179.524 631.697 186.908 629.609 195.02C628.62 198.859 628.132 202.752 628.132 206.615C628.132 214.777 630.316 222.822 634.579 230.037C640.86 240.666 650.908 248.211 662.871 251.286C687.562 257.633 712.819 242.72 719.174 218.045C720.163 214.202 720.638 210.343 720.638 206.549C720.638 185.966 706.757 167.143 685.912 161.784C682.939 161.019 679.899 160.548 676.86 160.383C676.852 160.383 676.848 160.383 676.839 160.383C676.616 160.371 676.393 160.362 676.17 160.35L676.269 157.829C679.713 157.966 683.17 158.474 686.54 159.338C687.677 159.631 688.798 159.961 689.894 160.329C711.826 167.664 725.501 189.503 722.83 212.194C722.577 214.351 722.176 216.517 721.618 218.674C715.966 240.641 696.101 255.269 674.383 255.269H674.387Z" fill="white"/>
<path d="M346.364 403.307C345.987 403.307 345.607 403.216 345.268 403.038C344.102 402.435 343.643 400.992 344.251 399.827L451.957 192.231C452.561 191.066 454.004 190.607 455.17 191.215C456.336 191.818 456.795 193.26 456.187 194.426L348.481 402.021C348.067 402.815 347.257 403.307 346.364 403.307Z" fill="#0057B3"/>
<path d="M397.461 405.038C397.134 405.038 396.811 404.972 396.51 404.84C395.927 404.588 395.476 404.121 395.244 403.53C395.013 402.939 395.021 402.29 395.277 401.707L487.336 190.326C487.862 189.124 489.267 188.57 490.471 189.095C491.674 189.62 492.228 191.025 491.703 192.227L399.644 403.608C399.264 404.476 398.408 405.038 397.457 405.038H397.461Z" fill="#0057B3"/>
<path d="M472.128 232.464H434.788C433.965 232.464 433.299 231.799 433.299 230.976C433.299 230.154 433.965 229.489 434.788 229.489H472.128C472.951 229.489 473.616 230.154 473.616 230.976C473.616 231.799 472.951 232.464 472.128 232.464Z" fill="#0057B3"/>
<path d="M462.15 255.58H424.81C423.987 255.58 423.321 254.915 423.321 254.092C423.321 253.27 423.987 252.605 424.81 252.605H462.15C462.973 252.605 463.638 253.27 463.638 254.092C463.638 254.915 462.973 255.58 462.15 255.58Z" fill="#0057B3"/>
<path d="M448.992 283.263H409.275C408.452 283.263 407.786 282.597 407.786 281.775C407.786 280.953 408.452 280.287 409.275 280.287H448.992C449.815 280.287 450.481 280.953 450.481 281.775C450.481 282.597 449.815 283.263 448.992 283.263Z" fill="#0057B3"/>
<path d="M482.052 210.042H446.428C445.605 210.042 444.94 209.377 444.94 208.554C444.94 207.732 445.605 207.067 446.428 207.067H482.052C482.875 207.067 483.541 207.732 483.541 208.554C483.541 209.377 482.875 210.042 482.052 210.042Z" fill="#0057B3"/>
<path d="M435.884 315.11H392.726C391.903 315.11 391.237 314.445 391.237 313.623C391.237 312.8 391.903 312.135 392.726 312.135H435.884C436.707 312.135 437.372 312.8 437.372 313.623C437.372 314.445 436.707 315.11 435.884 315.11Z" fill="#0057B3"/>
<path d="M425.745 339.813H379.457C378.634 339.813 377.968 339.148 377.968 338.326C377.968 337.503 378.634 336.838 379.457 336.838H425.745C426.568 336.838 427.233 337.503 427.233 338.326C427.233 339.148 426.568 339.813 425.745 339.813Z" fill="#0057B3"/>
<path d="M416.643 309.78C411.875 305.631 401.633 302.312 401.633 302.312L395.471 302.449C393.908 304.205 393.201 307.614 392.899 309.751C394.061 310.445 396.232 311.052 400.223 311.242C407.604 311.594 413.562 310.515 416.643 309.784V309.78Z" fill="#434343"/>
<path d="M416.643 309.78C413.563 310.515 407.604 311.594 400.223 311.238C396.237 311.048 394.062 310.441 392.9 309.747C392.875 309.916 392.854 310.085 392.834 310.238C392.722 311.114 393.268 311.937 394.111 312.197C399.739 313.92 412.12 313.366 416.949 313.069C417.983 313.007 418.521 311.796 417.859 310.999C417.516 310.585 417.102 310.18 416.643 309.78Z" fill="#16202E"/>
<path d="M395.976 297.131V302.027C395.976 302.969 396.634 303.784 397.556 303.982C398.511 304.189 399.776 304.321 401.009 304.015C401.778 303.825 402.34 303.164 402.435 302.379L403.055 297.131H395.98H395.976Z" fill="url(#paint9_linear_148_1099)"/>
<path d="M427.134 272.039C425.223 267.787 425.769 265.873 421.986 266.299C421.531 266.349 421.155 266.439 420.832 266.551C420.592 267.254 420.58 268.03 420.832 268.766C421.787 271.518 423.789 276.217 427.456 280.845C428.226 281.816 429.408 282.382 430.649 282.403L434.821 282.473C430.864 279.312 428.713 275.568 427.13 272.039H427.134Z" fill="#16202E"/>
<path d="M435.09 276.163C431.889 273.911 430.69 264.708 430.69 264.708L425.753 262.196L422.031 264.89C421.457 265.316 421.051 265.898 420.832 266.543C421.151 266.431 421.531 266.34 421.986 266.291C425.769 265.869 425.224 267.778 427.134 272.031C428.722 275.56 430.868 279.303 434.825 282.465L437.695 282.514C438.985 282.535 439.729 281.064 438.948 280.039C437.968 278.754 436.628 277.237 435.094 276.159L435.09 276.163Z" fill="#434343"/>
<path d="M428.738 257.563L425.757 262.196C425.381 262.783 425.509 263.555 426.055 263.985C427.01 264.737 428.664 265.576 430.69 264.704L435.479 261.427L428.734 257.563H428.738Z" fill="url(#paint10_linear_148_1099)"/>
<path d="M406.368 208.67C406.368 208.67 404.8 213.083 402.526 228.596C400.252 244.105 398.755 255.386 397.519 261.535C396.386 267.159 394.599 287.416 394.703 296.275C394.715 297.465 395.699 298.412 396.89 298.374L402.754 298.193C403.659 298.164 404.42 297.507 404.569 296.614C406.12 287.494 416.85 240.431 423.317 226.889C423.317 226.889 440.528 231.749 444.82 233.708C444.82 233.708 439.275 235.927 427.903 257.225C427.903 257.225 432.811 261.121 436.289 261.936C436.289 261.936 461.166 241.315 463.796 239.158C466.425 237.001 468.816 233.282 462.113 226.509C455.405 219.736 434.821 209.054 434.821 209.054L406.368 208.666V208.67Z" fill="#16202E"/>
<path d="M422.37 227.373C422.329 227.373 422.284 227.364 422.242 227.344L416.106 224.98C413.468 223.724 411.752 221.025 411.739 218.104C411.739 217.939 411.871 217.806 412.037 217.806C412.227 217.806 412.335 217.939 412.335 218.104C412.347 220.798 413.931 223.286 416.362 224.447L422.499 226.811C422.647 226.881 422.709 227.059 422.639 227.207C422.59 227.315 422.482 227.377 422.37 227.377V227.373Z" fill="#1D4463"/>
<path d="M451.076 161.251C451.076 161.251 458.664 191.227 468.935 203.277C468.935 203.277 466.152 206.447 462.022 207.364C462.022 207.364 446.25 193.55 441.445 183.95C436.64 174.351 451.076 161.256 451.076 161.256V161.251Z" fill="#2784C9"/>
<path d="M442.603 126.97L433.403 146.495H447.921C447.921 146.495 449.087 137.569 452.908 132.197L442.603 126.97Z" fill="url(#paint11_linear_148_1099)"/>
<path d="M431.728 145.416C431.728 145.416 435.09 139.895 457.064 141.251C468.489 141.953 494.18 132.007 499.899 126.998C499.899 126.998 503.629 126.974 507.065 130.569C507.065 130.569 483.334 155.594 455.666 158.793C455.666 158.793 434.668 202.037 434.817 209.054C434.817 209.054 422.354 217.414 405.446 211.43C405.446 211.43 404.929 199.409 411.528 182.805C420.096 161.247 431.728 145.412 431.728 145.412V145.416Z" fill="#2E9DEF"/>
<path d="M441.693 160.334C441.54 160.334 441.408 160.214 441.396 160.061C441.383 159.896 441.503 159.755 441.669 159.739C441.776 159.731 452.325 158.871 453.971 158.689C454.132 158.673 454.281 158.788 454.301 158.954C454.318 159.119 454.202 159.264 454.041 159.284C452.387 159.47 441.83 160.33 441.722 160.338C441.714 160.338 441.706 160.338 441.698 160.338L441.693 160.334Z" fill="#1A85DF"/>
<path d="M456.786 112.911C456.935 113.184 460.198 133.565 460.198 133.565L448.516 135.18L442.554 116.325C442.554 116.325 454.264 108.337 456.786 112.915V112.911Z" fill="url(#paint12_linear_148_1099)"/>
<path d="M446.527 119.531L448.889 129.701C448.917 129.833 448.967 129.953 449.029 130.073C449.422 130.792 450.964 133.164 453.297 131.441C455.414 129.879 457.37 128.486 459.04 128.379C459.793 128.329 460.454 128.862 460.574 129.602C460.872 131.453 461.459 135.639 461.418 139.35C461.409 140.102 460.818 140.718 460.066 140.776C457.8 140.949 453.011 141.181 449.116 140.466C448.587 140.371 448.157 139.999 447.987 139.486C447.168 137.003 444.658 129.461 443.629 127.465C442.665 125.593 439.824 125.325 438.621 125.3C438.228 125.292 437.856 125.122 437.592 124.833C436.653 123.804 434.933 121.254 438.03 118.779C438.679 118.263 438.77 117.316 438.228 116.684C437.157 115.424 436.099 113.287 438.373 111.035C440.68 108.746 443.314 109.448 444.886 110.229C445.523 110.543 446.275 110.345 446.705 109.779C446.949 109.457 447.338 109.238 447.95 109.358C448.777 109.523 449.558 108.903 449.637 108.064C449.79 106.448 450.592 104.477 453.487 103.923C458.622 102.936 461.182 108.072 461.087 111.68C460.992 115.287 455.364 116.044 452.172 115.444C449.744 114.986 447.656 117.209 446.792 118.3C446.519 118.647 446.42 119.097 446.523 119.523L446.527 119.531Z" fill="#434343"/>
<path d="M444.526 131.168C444.526 131.168 444.419 124.87 441.871 124.279C439.32 123.684 436.57 125.527 438.749 129.296C441.458 133.986 444.53 131.168 444.53 131.168H444.526Z" fill="url(#paint13_linear_148_1099)"/>
<path d="M458.631 113.428C458.552 113.428 458.474 113.399 458.411 113.341C458.287 113.221 458.283 113.023 458.403 112.895C458.411 112.887 459.276 111.957 459.201 110.477C459.127 109.027 458.213 107.535 456.485 106.048C456.352 105.936 456.336 105.733 456.451 105.601C456.567 105.469 456.766 105.452 456.898 105.568C458.771 107.176 459.76 108.824 459.834 110.457C459.917 112.213 458.904 113.283 458.862 113.329C458.8 113.395 458.717 113.424 458.635 113.424L458.631 113.428Z" fill="#BDD0FB"/>
<path d="M499.903 126.999C499.903 126.999 503.513 117.064 504.212 117.445C504.915 117.825 505.332 119.994 505.332 119.994C505.332 119.994 513.888 117.403 514.52 116.283C515.149 115.159 518.759 112.655 518.775 113.523C518.796 114.391 516.621 121.746 513.817 123.99C511.014 126.234 506.763 130.267 506.763 130.267L499.903 126.999Z" fill="url(#paint14_linear_148_1099)"/>
<path d="M462.022 207.364C462.022 207.364 468.485 202.475 471.429 203.393C474.369 204.31 476.54 207.066 476.54 207.066H470.04C470.04 207.066 468.489 210.042 470.04 210.042H472.334C472.334 210.042 466.268 216.397 462.022 207.364Z" fill="url(#paint15_linear_148_1099)"/>
<path d="M299.629 392.65C299.629 392.65 298.839 397.108 298.455 401.522C298.302 403.245 299.633 404.745 301.366 404.815C307.246 405.059 319.825 405.534 324.34 405.336C325.018 405.307 325.461 404.613 325.213 403.98C325.002 403.451 324.597 403.026 324.08 402.786L303.301 393.245L299.633 392.654L299.629 392.65Z" fill="#434343"/>
<path d="M298.984 390.03L299.617 395.361C299.617 395.361 303.255 397.055 305.741 395.146L304.231 389.203L298.98 390.026L298.984 390.03Z" fill="url(#paint16_linear_148_1099)"/>
<path d="M299.459 289.783C299.187 291.176 297.992 359.273 305.273 389.786C305.393 390.282 305.141 390.798 304.666 390.992C303.549 391.447 301.357 392.108 298.732 392.199C297.917 392.228 297.189 391.699 296.962 390.918C294.878 383.839 284.904 348.363 283.601 314.478C282.146 276.614 283.601 313.189 283.601 313.189L284.453 289.783H299.455H299.459Z" fill="#434343"/>
<path d="M275.728 394.976C275.728 394.976 274.475 397.228 273.26 403.208C273.041 404.286 273.797 405.319 274.893 405.431C276.836 405.621 279.822 405.869 282.22 405.852C283.324 405.844 284.185 404.886 284.052 403.79C283.788 401.609 282.961 398.026 280.409 395.237L275.732 394.984L275.728 394.976Z" fill="#434343"/>
<path d="M274.628 388.117L276.109 396.179C276.109 396.179 277.573 397.266 280.463 396.476L279.756 387.798L274.628 388.112V388.117Z" fill="url(#paint17_linear_148_1099)"/>
<path d="M270.63 291.875C264.671 327.801 271.924 380.674 274.368 391.021C274.517 391.654 275.029 392.141 275.67 392.249C276.762 392.431 278.557 392.575 280.331 392.063C280.943 391.885 281.369 391.336 281.393 390.699C281.72 382.331 281.133 330.975 286.682 310.677C286.963 309.648 287.592 308.751 288.46 308.131L299.232 300.478L300.059 288.106L270.626 291.875H270.63Z" fill="#434343"/>
<path d="M308.59 223.794C290.739 223.501 271.039 228.48 271.039 228.48C265.717 259.51 270.109 295.3 270.109 295.3C283.928 298.924 299.522 293.085 299.522 293.085C301.821 280.114 312.535 243.613 312.535 243.613C321.255 242.53 328.442 240.018 334.359 236.691C329.844 231.464 327.719 224.811 326.792 220.877C320.482 222.836 314.094 223.885 308.586 223.794H308.59Z" fill="#0057B3"/>
<path d="M361.324 197.517C359.571 195.401 357.351 196.401 357.351 196.401C354.725 207.492 340.947 216.484 326.797 220.877C327.719 224.811 329.848 231.464 334.364 236.691C357.851 223.493 361.324 197.517 361.324 197.517Z" fill="url(#paint18_linear_148_1099)"/>
<path d="M360.898 198.058C361.08 198.641 358.955 199.529 357.706 197.145C357.661 196 356.966 191.108 357.648 190.174C361.287 185.215 368.341 179 368.341 179C369.532 180.178 368.552 181.331 368.552 181.331L365.129 184.893C365.844 186.186 366.716 187.277 367.126 188.839C367.436 190.025 367.246 191.29 366.646 192.368C366.047 193.451 365.224 194.856 364.45 195.955C362.982 198.038 360.894 198.054 360.894 198.054L360.898 198.058Z" fill="url(#paint19_linear_148_1099)"/>
<path d="M363.632 187.207L360.514 189.847L359.534 192.48L362.313 195.562C362.313 195.562 363.247 190.343 363.942 189.211C364.636 188.083 364.277 187.533 363.628 187.203L363.632 187.207Z" fill="url(#paint20_linear_148_1099)"/>
<path d="M277.887 245.758L271.039 228.485C271.039 228.485 254.362 239.807 251.621 254.163C254.772 254.394 260.503 255.212 266.118 258.047C267.351 251.27 277.887 245.762 277.887 245.762V245.758Z" fill="#0057B3"/>
<path d="M292.459 262.01C292.459 262.01 273.735 272.585 267.421 263.556C266.11 261.68 265.796 259.816 266.118 258.043C260.507 255.212 254.772 254.394 251.621 254.159C250.794 258.485 251.232 263.089 253.775 267.742C264.841 287.969 294.936 266.622 294.936 266.622L292.459 262.01Z" fill="url(#paint21_linear_148_1099)"/>
<path d="M290.209 275.386L300.427 239.729C300.543 239.324 300.89 239.03 301.308 238.981C303.16 238.766 308.524 238.158 314.718 237.633C322.178 237.001 330.84 236.493 336.018 236.927C336.754 236.989 337.2 237.766 336.869 238.427C333.925 244.377 321.814 268.593 315.752 276.523C315.549 276.787 315.239 276.94 314.908 276.936L291.202 276.717C290.511 276.709 290.019 276.048 290.209 275.386Z" fill="url(#paint22_linear_148_1099)"/>
<path d="M315.776 234.543L323.186 233.311C323.579 233.245 323.906 233.621 323.778 234.001L323.046 236.22C322.984 236.414 322.814 236.555 322.612 236.58L315.483 237.53C315.115 237.58 314.809 237.245 314.896 236.881L315.35 234.943C315.4 234.733 315.57 234.576 315.781 234.538L315.776 234.543Z" fill="white"/>
<path d="M310.227 240.811L310.839 237.634C310.901 237.315 311.162 237.076 311.488 237.043L326.449 235.526C326.954 235.476 327.355 235.935 327.239 236.427L326.288 240.386C326.213 240.704 325.936 240.931 325.61 240.948L310.988 241.683C310.512 241.708 310.14 241.278 310.231 240.811H310.227Z" fill="white"/>
<path d="M292.678 266.771C292.678 266.771 291.255 260.923 291.83 258.845C292.405 256.77 293.517 254.101 297.226 254.696C300.936 255.287 305.306 256.849 305.306 256.849C305.306 256.849 305.087 259.551 302.267 258.679L304.016 260.031C304.016 260.031 303.768 262.196 301.386 261.039L303.011 262.832C303.011 262.832 301.99 264.609 300.237 263.469C298.483 262.328 297.644 267.473 292.678 266.771Z" fill="url(#paint23_linear_148_1099)"/>
<path d="M290.507 209.315L284.826 225.733C284.73 226.005 284.842 226.307 285.094 226.443C286.641 227.299 292.223 229.77 298.943 225.514C299.641 225.071 300.121 224.344 300.225 223.526L302.065 209.319H290.503L290.507 209.315Z" fill="url(#paint24_linear_148_1099)"/>
<path d="M302.867 194.112C302.867 194.112 309.102 205.848 308.304 210.588C307.506 215.327 299.774 214.988 293.025 211.137L288.307 198.467L302.867 194.112Z" fill="url(#paint25_linear_148_1099)"/>
<path d="M293.323 204.914C293.596 204.794 293.699 204.455 293.534 204.207C293.034 203.443 292.099 201.889 291.797 200.525C291.797 200.525 290.677 199.806 294.65 198.856C298.624 197.905 304.554 196.43 305.799 193.046C307.014 189.748 303.822 181.459 298.728 188.062C298.533 188.314 298.153 188.318 297.963 188.066C297.127 186.979 294.932 184.727 291.884 186.091C289.031 187.368 288.712 189.459 288.75 190.508C288.762 190.818 288.485 191.058 288.179 191C286.736 190.727 283.279 190.488 281.662 194.037C280.331 196.959 281.195 198.612 281.985 199.422C282.241 199.682 282.129 200.116 281.778 200.224C280.831 200.513 279.607 201.314 279.731 203.534C279.901 206.6 283.333 206.331 284.309 206.191C284.47 206.166 284.631 206.224 284.739 206.344C285.578 207.269 289.349 211.203 293.435 211.678C293.79 211.72 294.063 211.368 293.947 211.034L292.178 205.897C292.095 205.658 292.211 205.397 292.442 205.294L293.319 204.905L293.323 204.914Z" fill="#434343"/>
<path d="M294.034 205.641C294.034 205.641 289.593 202.596 289.271 205.162C288.948 207.728 293.269 208.877 295.411 207.922L294.034 205.645V205.641Z" fill="url(#paint26_linear_148_1099)"/>
<defs>
<linearGradient id="paint0_linear_148_1099" x1="424" y1="168" x2="684" y2="168" gradientUnits="userSpaceOnUse">
<stop stop-color="#FF9C00"/>
<stop offset="1" stop-color="#FFAA1A"/>
</linearGradient>
<linearGradient id="paint1_linear_148_1099" x1="770.859" y1="195.714" x2="796.781" y2="254.741" gradientUnits="userSpaceOnUse">
<stop stop-color="#FFAEAB"/>
<stop offset="1" stop-color="#FEB3B1"/>
</linearGradient>
<linearGradient id="paint2_linear_148_1099" x1="800.859" y1="447.77" x2="817.98" y2="247.548" gradientUnits="userSpaceOnUse">
<stop stop-color="#FFAEAB"/>
<stop offset="1" stop-color="#FEB3B1"/>
</linearGradient>
<linearGradient id="paint3_linear_148_1099" x1="835.345" y1="450.749" x2="852.467" y2="250.474" gradientUnits="userSpaceOnUse">
<stop stop-color="#FFA9A6"/>
<stop offset="1" stop-color="#FEB3B1"/>
</linearGradient>
<linearGradient id="paint4_linear_148_1099" x1="803.666" y1="211.372" x2="800.775" y2="251.662" gradientUnits="userSpaceOnUse">
<stop stop-color="#FFA6A3"/>
<stop offset="1" stop-color="#FEB3B1"/>
</linearGradient>
<linearGradient id="paint5_linear_148_1099" x1="2536.07" y1="-1108.87" x2="2510.65" y2="-1089.64" gradientUnits="userSpaceOnUse">
<stop stop-color="#FF928E"/>
<stop offset="1" stop-color="#FEB3B1"/>
</linearGradient>
<linearGradient id="paint6_linear_148_1099" x1="2539.51" y1="-1104.33" x2="2514.09" y2="-1085.1" gradientUnits="userSpaceOnUse">
<stop stop-color="#FF928E"/>
<stop offset="1" stop-color="#FEB3B1"/>
</linearGradient>
<linearGradient id="paint7_linear_148_1099" x1="763.879" y1="193.76" x2="781.784" y2="234.526" gradientUnits="userSpaceOnUse">
<stop stop-color="#FFAAA7"/>
<stop offset="1" stop-color="#FEB3B1"/>
</linearGradient>
<linearGradient id="paint8_linear_148_1099" x1="792.604" y1="223.052" x2="774.388" y2="259.532" gradientUnits="userSpaceOnUse">
<stop stop-color="#FFADAA"/>
<stop offset="1" stop-color="#FEB3B1"/>
</linearGradient>
<linearGradient id="paint9_linear_148_1099" x1="395.972" y1="300.66" x2="403.047" y2="300.66" gradientUnits="userSpaceOnUse">
<stop stop-color="#FFAAA7"/>
<stop offset="1" stop-color="#FEB3B1"/>
</linearGradient>
<linearGradient id="paint10_linear_148_1099" x1="425.542" y1="261.32" x2="435.479" y2="261.32" gradientUnits="userSpaceOnUse">
<stop stop-color="#FFB1AE"/>
<stop offset="1" stop-color="#FEB3B1"/>
</linearGradient>
<linearGradient id="paint11_linear_148_1099" x1="456.832" y1="113.601" x2="427.504" y2="172.296" gradientUnits="userSpaceOnUse">
<stop stop-color="#FFAEAB"/>
<stop offset="1" stop-color="#FEB3B1"/>
</linearGradient>
<linearGradient id="paint12_linear_148_1099" x1="452.691" y1="115.311" x2="447.057" y2="154.165" gradientUnits="userSpaceOnUse">
<stop stop-color="#FFABA8"/>
<stop offset="1" stop-color="#FEB3B1"/>
</linearGradient>
<linearGradient id="paint13_linear_148_1099" x1="434.262" y1="153.759" x2="441.497" y2="127.532" gradientUnits="userSpaceOnUse">
<stop stop-color="#FF928E"/>
<stop offset="1" stop-color="#FEB3B1"/>
</linearGradient>
<linearGradient id="paint14_linear_148_1099" x1="520.247" y1="68.5591" x2="513.64" y2="99.9666" gradientUnits="userSpaceOnUse">
<stop stop-color="#FEA7A4"/>
<stop offset="1" stop-color="#FEB3B1"/>
</linearGradient>
<linearGradient id="paint15_linear_148_1099" x1="490.967" y1="140.387" x2="476.099" y2="186.262" gradientUnits="userSpaceOnUse">
<stop stop-color="#FF928E"/>
<stop offset="1" stop-color="#FEB3B1"/>
</linearGradient>
<linearGradient id="paint16_linear_148_1099" x1="298.984" y1="392.633" x2="305.741" y2="392.633" gradientUnits="userSpaceOnUse">
<stop stop-color="#FFA9A6"/>
<stop offset="1" stop-color="#FEB3B1"/>
</linearGradient>
<linearGradient id="paint17_linear_148_1099" x1="274.628" y1="392.286" x2="280.463" y2="392.286" gradientUnits="userSpaceOnUse">
<stop stop-color="#FFA9A5"/>
<stop offset="1" stop-color="#FEB3B1"/>
</linearGradient>
<linearGradient id="paint18_linear_148_1099" x1="326.797" y1="216.43" x2="361.32" y2="216.43" gradientUnits="userSpaceOnUse">
<stop stop-color="#FFA9A5"/>
<stop offset="1" stop-color="#FEB3B1"/>
</linearGradient>
<linearGradient id="paint19_linear_148_1099" x1="353.633" y1="210.645" x2="330.49" y2="263.336" gradientUnits="userSpaceOnUse">
<stop stop-color="#FFAEAB"/>
<stop offset="1" stop-color="#FEB3B1"/>
</linearGradient>
<linearGradient id="paint20_linear_148_1099" x1="343.324" y1="220.778" x2="364.253" y2="188.256" gradientUnits="userSpaceOnUse">
<stop stop-color="#FF928E"/>
<stop offset="1" stop-color="#FEB3B1"/>
</linearGradient>
<linearGradient id="paint21_linear_148_1099" x1="251.24" y1="265.304" x2="294.936" y2="265.304" gradientUnits="userSpaceOnUse">
<stop stop-color="#FFA4A0"/>
<stop offset="1" stop-color="#FEB3B1"/>
</linearGradient>
<linearGradient id="paint22_linear_148_1099" x1="290.168" y1="256.851" x2="336.98" y2="256.851" gradientUnits="userSpaceOnUse">
<stop stop-color="#FF9C00"/>
<stop offset="1" stop-color="#FFAA1A"/>
</linearGradient>
<linearGradient id="paint23_linear_148_1099" x1="291.694" y1="260.725" x2="305.306" y2="260.725" gradientUnits="userSpaceOnUse">
<stop stop-color="#FF928E"/>
<stop offset="1" stop-color="#FEB3B1"/>
</linearGradient>
<linearGradient id="paint24_linear_148_1099" x1="295.808" y1="208.765" x2="288.924" y2="242.103" gradientUnits="userSpaceOnUse">
<stop stop-color="#FFACA9"/>
<stop offset="1" stop-color="#FEB3B1"/>
</linearGradient>
<linearGradient id="paint25_linear_148_1099" x1="2918.09" y1="612.976" x2="2886.74" y2="608.065" gradientUnits="userSpaceOnUse">
<stop stop-color="#FF928E"/>
<stop offset="1" stop-color="#FEB3B1"/>
</linearGradient>
<linearGradient id="paint26_linear_148_1099" x1="2917.53" y1="616.618" x2="2886.18" y2="611.709" gradientUnits="userSpaceOnUse">
<stop stop-color="#FF928E"/>
<stop offset="1" stop-color="#FEB3B1"/>
</linearGradient>
</defs>
</svg>
