<svg width="193" height="172" viewBox="0 0 193 172" fill="none" xmlns="http://www.w3.org/2000/svg">
<g clip-path="url(#clip0_146_913)">
<g opacity="0.8">
<g opacity="0.3">
<path d="M126.686 57.6593C126.183 58.2526 125.296 58.324 124.705 57.8198C123.556 56.8409 122.348 55.8957 121.114 55.0139C120.489 54.5676 120.338 53.7019 120.77 53.0709C120.775 53.0628 120.781 53.0561 120.786 53.048C121.236 52.4143 122.114 52.266 122.745 52.719C124.045 53.648 125.316 54.6417 126.526 55.6732C127.079 56.1451 127.177 56.9541 126.776 57.542C126.747 57.5825 126.718 57.6216 126.686 57.6607V57.6593ZM114.812 51.132C113.47 50.4268 112.086 49.7729 110.696 49.1877C109.981 48.887 109.644 48.0605 109.945 47.3418C110.249 46.6218 111.068 46.2861 111.785 46.5881C113.247 47.2043 114.705 47.8919 116.117 48.6335C116.804 48.9949 117.07 49.847 116.71 50.536C116.684 50.5859 116.655 50.6345 116.624 50.679C116.228 51.2601 115.451 51.465 114.814 51.1306L114.812 51.132ZM103.699 46.7998C102.238 46.4128 100.743 46.0852 99.2544 45.8263C98.4898 45.6928 97.9777 44.9633 98.1108 44.1961C98.2438 43.4303 98.9709 42.9152 99.7355 43.0487C101.304 43.3224 102.879 43.6676 104.416 44.0748C105.166 44.273 105.614 45.0442 105.416 45.798C105.374 45.9584 105.306 46.1054 105.217 46.2348C104.891 46.7135 104.289 46.9575 103.699 46.8011V46.7998ZM91.8994 45.0699C90.3876 45.02 88.8569 45.0361 87.3477 45.117C86.5723 45.1588 85.9111 44.5615 85.8695 43.7835C85.8291 43.0055 86.4231 42.3435 87.1985 42.3004C88.787 42.2154 90.3996 42.1992 91.9908 42.2505C92.7662 42.2761 93.375 42.9273 93.3494 43.7053C93.34 43.9831 93.2513 44.2406 93.1062 44.455C92.8442 44.8393 92.398 45.0847 91.9008 45.0685L91.8994 45.0699ZM80.0102 46.0204C78.5292 46.309 77.0389 46.6636 75.5821 47.0789C74.8349 47.2906 74.0582 46.8551 73.8472 46.1067C73.6362 45.3571 74.0703 44.5777 74.8161 44.366C76.3495 43.9305 77.9164 43.5557 79.4753 43.2536C80.2373 43.1053 80.9737 43.6042 81.1216 44.3687C81.1955 44.7543 81.1068 45.1332 80.9012 45.4326C80.6996 45.7278 80.3865 45.9463 80.0088 46.0204H80.0102ZM68.6262 49.5868C67.2434 50.1976 65.8686 50.8745 64.5422 51.6012C63.8609 51.9734 63.0075 51.7226 62.6366 51.039C62.2643 50.3554 62.5156 49.4992 63.197 49.1257C64.5933 48.3612 66.0406 47.6479 67.496 47.0061C68.207 46.6933 69.0348 47.0169 69.3479 47.7288C69.5508 48.1913 69.485 48.705 69.2202 49.0933C69.0778 49.3036 68.8762 49.4762 68.6276 49.5868H68.6262ZM35.9796 90.42C35.2149 90.2851 34.7042 89.5543 34.8386 88.7885C35.1128 87.2176 35.4608 85.6374 35.8694 84.0922C36.0682 83.3398 36.8383 82.8922 37.5882 83.0917C38.338 83.2913 38.7842 84.0639 38.5853 84.8162C38.1969 86.2832 37.8677 87.7839 37.607 89.2752C37.5707 89.4802 37.4927 89.6662 37.3839 89.8267C37.0829 90.2689 36.5413 90.5184 35.9809 90.42H35.9796ZM58.3201 55.5937C57.1079 56.497 55.9186 57.4638 54.7884 58.4683C54.2065 58.9847 53.3195 58.9295 52.8048 58.347C52.2901 57.7631 52.3479 56.8759 52.9258 56.3568C54.1164 55.2997 55.3676 54.2804 56.6456 53.3298C57.2692 52.866 58.1481 52.9967 58.6117 53.621C58.9786 54.1172 58.9732 54.7752 58.6439 55.2579C58.5579 55.3833 58.4504 55.4966 58.3214 55.5937H58.3201ZM39.1377 78.5505C38.4227 78.2485 38.0881 77.4206 38.3891 76.7033C39.0073 75.2336 39.6967 73.772 40.4385 72.3589C40.7973 71.6672 41.6493 71.4056 42.3361 71.767C43.0228 72.1297 43.2862 72.9819 42.926 73.6709C42.2218 75.0152 41.566 76.4039 40.9788 77.7995C40.9411 77.8885 40.8954 77.9721 40.843 78.0476C40.4735 78.5896 39.7639 78.8134 39.1377 78.5492V78.5505ZM49.6118 63.7592C48.6321 64.9107 47.6887 66.1202 46.8085 67.3552C46.3569 67.989 45.4794 68.1346 44.8478 67.6815C44.2255 67.2339 44.075 66.3709 44.5051 65.7399C44.5105 65.7318 44.5158 65.7237 44.5225 65.7157C45.4485 64.4158 46.4416 63.143 47.4737 61.9295C47.9776 61.3376 48.8646 61.2675 49.4546 61.7731C50.0055 62.245 50.1036 63.0527 49.7032 63.6406C49.675 63.6824 49.644 63.7215 49.6118 63.7606V63.7592Z" fill="#E8E9EA"/>
<path d="M36.5656 99.6938C36.7215 99.4646 36.8128 99.1868 36.8101 98.8889C36.8048 98.1621 36.8142 97.4232 36.8384 96.6924C36.8639 95.9144 36.2565 95.2618 35.4811 95.2376C34.7056 95.2119 34.0552 95.8214 34.031 96.5994C34.0055 97.3679 33.9961 98.1459 34.0015 98.9104C34.0068 99.6884 34.6411 100.315 35.4166 100.31C35.895 100.306 36.3156 100.063 36.5669 99.6952L36.5656 99.6938Z" fill="#E8E9EA"/>
</g>
<g opacity="0.3">
<path d="M53.5884 139.131C53.9714 138.571 53.9029 137.797 53.3949 137.314C52.8694 136.814 52.3453 136.295 51.8373 135.77C51.2971 135.212 50.4075 135.198 49.8511 135.74C49.2921 136.285 49.2813 137.175 49.8215 137.733C50.3564 138.285 50.9074 138.832 51.4611 139.359C52.0241 139.895 52.9138 139.872 53.4473 139.307C53.4997 139.251 53.5468 139.192 53.5884 139.131Z" fill="#E8E9EA"/>
<path d="M134.788 132.631C134.319 133.251 133.437 133.373 132.819 132.902C132.201 132.432 132.081 131.548 132.549 130.927C133.443 129.746 134.299 128.509 135.106 127.235C135.519 126.58 136.391 126.384 137.046 126.802C137.7 127.22 137.894 128.091 137.477 128.748C137.128 129.299 136.77 129.843 136.405 130.378C135.883 131.141 135.34 131.899 134.787 132.63L134.788 132.631ZM139.276 122.694C138.572 122.369 138.263 121.532 138.587 120.825C139.209 119.467 139.78 118.068 140.286 116.667C140.546 115.935 141.355 115.556 142.085 115.82C142.815 116.084 143.192 116.893 142.928 117.624C142.396 119.099 141.795 120.573 141.14 122.002C141.107 122.076 141.066 122.146 141.022 122.211C140.643 122.768 139.908 122.985 139.276 122.694ZM129.754 138.418C128.648 139.527 127.479 140.602 126.28 141.615C125.686 142.117 124.8 142.041 124.3 141.445C123.8 140.849 123.877 139.961 124.47 139.459C125.609 138.496 126.718 137.476 127.769 136.423C128.318 135.873 129.208 135.874 129.756 136.424C130.242 136.911 130.297 137.666 129.922 138.215C129.873 138.286 129.817 138.353 129.754 138.417V138.418ZM143.366 111.322C142.607 111.16 142.121 110.412 142.284 109.65C142.593 108.19 142.844 106.7 143.029 105.221C143.125 104.448 143.827 103.901 144.598 103.998C145.368 104.095 145.914 104.799 145.817 105.571C145.622 107.13 145.359 108.699 145.032 110.237C144.993 110.423 144.919 110.591 144.819 110.739C144.507 111.197 143.94 111.445 143.366 111.322ZM120.103 146.146C118.782 146.981 117.406 147.773 116.015 148.497C115.327 148.856 114.479 148.586 114.122 147.896C113.764 147.204 114.033 146.353 114.723 145.995C116.045 145.307 117.351 144.554 118.605 143.76C119.261 143.345 120.129 143.542 120.543 144.201C120.852 144.692 120.821 145.3 120.513 145.75C120.408 145.904 120.27 146.04 120.103 146.146ZM108.998 151.562C107.522 152.089 106.008 152.561 104.497 152.963C103.747 153.162 102.977 152.713 102.78 151.961C102.581 151.207 103.028 150.436 103.778 150.238C105.215 149.856 106.654 149.409 108.056 148.907C108.787 148.645 109.59 149.028 109.851 149.762C110.008 150.204 109.932 150.672 109.686 151.032C109.524 151.269 109.289 151.459 108.999 151.563L108.998 151.562ZM96.9794 154.42C95.4245 154.613 93.8428 154.743 92.2812 154.805C91.5058 154.836 90.8527 154.229 90.8217 153.452C90.7908 152.673 91.3956 152.019 92.1697 151.988C93.6546 151.93 95.1557 151.806 96.634 151.624C97.404 151.528 98.1055 152.077 98.201 152.849C98.2453 153.204 98.1526 153.545 97.9671 153.818C97.7467 154.14 97.396 154.369 96.9794 154.422V154.42ZM84.6252 154.581C83.0663 154.428 81.4939 154.206 79.9552 153.921C79.1919 153.78 78.6866 153.045 78.8277 152.279C78.9674 151.515 79.7012 151.008 80.4645 151.148C81.9253 151.418 83.417 151.628 84.8993 151.773C85.672 151.849 86.2365 152.538 86.1612 153.313C86.137 153.559 86.0523 153.781 85.9233 153.971C85.6438 154.383 85.1546 154.631 84.6265 154.579L84.6252 154.581ZM72.5316 152.012C71.048 151.519 69.5644 150.956 68.1251 150.338C67.4115 150.031 67.0809 149.202 67.386 148.488C67.691 147.774 68.5162 147.44 69.2298 147.746C70.5978 148.334 72.0062 148.868 73.4159 149.337C74.1524 149.581 74.5515 150.379 74.3083 151.118C74.2652 151.246 74.2075 151.365 74.1335 151.471C73.7895 151.977 73.1404 152.214 72.5316 152.012ZM61.3076 146.848C60.3185 146.255 59.3362 145.624 58.3874 144.972C58.0434 144.737 57.7034 144.498 57.3674 144.255C56.7371 143.802 56.5745 142.92 57.0449 142.288C57.4964 141.656 58.374 141.51 59.0056 141.963C59.3254 142.194 59.6493 142.42 59.9759 142.645C60.8776 143.264 61.8116 143.864 62.7509 144.429C63.4162 144.828 63.6339 145.694 63.2347 146.363C63.22 146.388 63.2038 146.412 63.1877 146.437C62.7711 147.046 61.9487 147.234 61.3076 146.849V146.848Z" fill="#E8E9EA"/>
<path d="M146 98.6758C146.157 98.4439 146.248 98.1648 146.244 97.8628C146.235 97.0996 146.209 96.323 146.168 95.5517C146.126 94.7737 145.464 94.1778 144.689 94.2196C143.914 94.2614 143.32 94.9248 143.362 95.7027C143.401 96.4335 143.425 97.1724 143.434 97.8965C143.444 98.6745 144.081 99.2974 144.856 99.288C145.332 99.2812 145.75 99.0399 145.998 98.6731L146 98.6758Z" fill="#E8E9EA"/>
</g>
<path d="M128.774 81.7838C128.695 81.5142 128.454 81.324 128.175 81.3119L120.191 80.9438C118.348 77.6876 115.975 74.7023 113.111 72.1338L114.44 64.2311C114.487 63.9534 114.353 63.6783 114.107 63.5435L105.69 58.9389C105.444 58.8041 105.141 58.8405 104.934 59.0306L99.0328 64.432C95.3304 63.4073 91.5434 63.023 87.8168 63.2334L83.1845 56.6993C83.0219 56.4701 82.7329 56.3703 82.4642 56.4499L73.268 59.1654C72.9993 59.245 72.8098 59.4863 72.7977 59.7668L72.4322 67.7773C69.1867 69.6258 66.21 72.007 63.6513 74.8803L55.7749 73.5468C55.498 73.4996 55.2225 73.6345 55.0895 73.8812L50.5002 82.3259C50.3658 82.5726 50.4034 82.8773 50.5916 83.085L55.9751 89.0055C54.9538 92.7202 54.5708 96.5198 54.7804 100.259L48.268 104.907C48.0395 105.07 47.9401 105.36 48.0194 105.629L50.7259 114.856C50.8052 115.126 51.0458 115.316 51.3253 115.328L59.3093 115.696C61.1517 118.952 63.525 121.937 66.3888 124.506L65.0597 132.409C65.0126 132.686 65.147 132.963 65.393 133.096L73.8096 137.701C74.0556 137.836 74.3593 137.798 74.5662 137.609L80.4672 132.208C84.1695 133.232 87.9566 133.617 91.6831 133.406L96.3155 139.94C96.4781 140.17 96.767 140.269 97.0358 140.191L106.232 137.476C106.501 137.396 106.69 137.155 106.702 136.874L107.069 128.864C110.315 127.015 113.29 124.634 115.85 121.761L123.726 123.094C124.002 123.141 124.277 123.007 124.412 122.76L129.001 114.315C129.135 114.069 129.099 113.764 128.91 113.556L123.526 107.636C124.548 103.921 124.931 100.121 124.721 96.3823L131.233 91.7346C131.462 91.5714 131.561 91.2815 131.483 91.0119L128.777 81.7852L128.774 81.7838Z" fill="#E8E9EA"/>
<path d="M96.8208 104.886C93.2125 108.799 87.1046 109.039 83.2033 105.419C81.3139 103.665 80.2173 101.278 80.1178 98.6974C80.017 96.1167 80.9241 93.6519 82.6725 91.7562C86.2808 87.8433 92.3887 87.6033 96.29 91.2236C99.8391 94.5176 100.355 99.8866 97.7024 103.777C97.439 104.162 97.1447 104.533 96.8195 104.886H96.8208ZM82.3648 98.6098C82.4414 100.589 83.2813 102.419 84.73 103.763C87.7201 106.538 92.4048 106.356 95.1705 103.355C97.9389 100.355 97.7548 95.6542 94.7633 92.8793C91.7732 90.1044 87.0885 90.2865 84.3228 93.2879C84.0715 93.5602 83.8444 93.8474 83.6388 94.1468C82.7491 95.4506 82.3003 97.0012 82.3634 98.6098H82.3648Z" fill="white"/>
<path d="M109.078 111.826C109.534 111.159 109.959 110.463 110.35 109.743C110.473 109.516 110.593 109.287 110.708 109.057C111.28 107.92 111.761 106.739 112.142 105.532C112.148 105.516 112.153 105.5 112.158 105.482C112.173 105.435 112.188 105.389 112.201 105.342C112.23 105.25 112.257 105.16 112.283 105.068C112.355 104.828 112.258 104.578 112.063 104.444C112.016 104.412 111.962 104.386 111.904 104.369C111.607 104.281 111.296 104.452 111.207 104.75C110.755 106.287 110.135 107.785 109.365 109.204C105.537 116.25 98.4966 120.441 91.0529 120.952C86.9138 121.236 82.6483 120.381 78.743 118.244C78.0577 117.869 77.3965 117.464 76.7622 117.027C72.4887 114.091 69.3776 109.808 67.8953 104.755C66.1926 98.9522 66.8457 92.8321 69.731 87.5223C75.6924 76.5549 89.4255 72.5032 100.351 78.4804C101.024 78.8485 101.678 79.2503 102.306 79.6831C105.032 81.5559 107.319 84.0059 108.995 86.8644C109.038 86.9385 109.096 86.9992 109.162 87.0437C109.335 87.1637 109.57 87.1785 109.764 87.0639C110.031 86.9048 110.121 86.561 109.963 86.2913C108.203 83.2886 105.802 80.7159 102.941 78.7514C102.281 78.2984 101.596 77.8763 100.889 77.4893C89.4174 71.2142 74.995 75.4763 68.7433 86.9803C65.7129 92.5557 65.0288 98.9806 66.8162 105.072C68.371 110.375 71.638 114.873 76.1238 117.954C76.7904 118.413 77.4838 118.839 78.2028 119.233C83.7597 122.273 90.1633 122.959 96.2349 121.166C101.522 119.605 106.005 116.326 109.077 111.823L109.078 111.826Z" fill="white"/>
<g opacity="0.3">
<path d="M184.409 38.8216C184.621 38.5102 184.615 38.0854 184.365 37.7794C183.898 37.2077 183.409 36.6414 182.909 36.0966C182.584 35.7434 182.036 35.7204 181.684 36.0467C181.329 36.3717 181.31 36.9232 181.634 37.2764C182.11 37.7942 182.577 38.3335 183.022 38.8796C183.325 39.2518 183.872 39.307 184.244 39.0023C184.31 38.9484 184.365 38.8864 184.41 38.8189L184.409 38.8216Z" fill="#E8E9EA"/>
<path d="M179.675 34.1173C179.366 34.484 178.817 34.5299 178.452 34.2198C177.527 33.4364 176.553 32.6921 175.556 32.0058C175.345 31.8615 175.132 31.7186 174.917 31.5784C174.517 31.3154 174.404 30.7761 174.666 30.3729C174.929 30.0021 175.466 29.8579 175.867 30.1208C176.092 30.2691 176.315 30.4174 176.535 30.5684C177.581 31.2871 178.604 32.0678 179.573 32.8889C179.915 33.1788 179.977 33.6804 179.728 34.0445C179.712 34.0687 179.693 34.0917 179.675 34.1159V34.1173ZM171.089 29.3887C169.773 28.7387 168.405 28.1657 167.023 27.6843C166.571 27.5266 166.331 27.0304 166.489 26.576C166.646 26.1243 167.14 25.8816 167.593 26.0394C169.041 26.5437 170.476 27.145 171.855 27.8259C172.285 28.039 172.462 28.5608 172.251 28.9922C172.232 29.03 172.211 29.0664 172.188 29.1001C171.949 29.452 171.481 29.5815 171.09 29.3887H171.089ZM162.778 26.4965C161.346 26.1904 159.879 25.972 158.419 25.8466C157.942 25.8048 157.587 25.3841 157.628 24.9054C157.67 24.4254 158.089 24.0708 158.566 24.1126C160.098 24.2447 161.636 24.4739 163.138 24.7949C163.607 24.8946 163.907 25.3571 163.806 25.8277C163.782 25.9423 163.736 26.0475 163.673 26.1378C163.481 26.4196 163.13 26.5733 162.777 26.4978L162.778 26.4965ZM154.013 25.7414C152.549 25.798 151.072 25.945 149.63 26.1809C149.157 26.2578 148.711 25.9355 148.634 25.4609C148.557 24.9877 148.877 24.5387 149.35 24.4618C150.865 24.2151 152.41 24.06 153.948 24.0007C154.426 23.9818 154.829 24.358 154.848 24.838C154.855 25.0322 154.798 25.2128 154.697 25.3625C154.547 25.5823 154.3 25.7306 154.013 25.7414ZM145.331 27.1558C143.924 27.567 142.529 28.07 141.185 28.6511C140.745 28.8412 140.235 28.6363 140.045 28.1954C139.856 27.7531 140.059 27.2407 140.499 27.052C141.908 26.4439 143.37 25.9167 144.846 25.4852C145.305 25.3504 145.788 25.616 145.922 26.0771C145.997 26.3374 145.946 26.6057 145.805 26.8133C145.696 26.9738 145.532 27.0992 145.332 27.1571L145.331 27.1558ZM137.253 30.6426C135.988 31.3842 134.76 32.2134 133.599 33.1047C133.218 33.3973 132.674 33.3245 132.382 32.9429C132.091 32.5613 132.163 32.0166 132.544 31.7213C133.761 30.7855 135.051 29.9172 136.376 29.1392C136.79 28.8965 137.321 29.0367 137.563 29.4507C137.738 29.7514 137.714 30.1141 137.531 30.3824C137.461 30.4849 137.368 30.5752 137.253 30.6413V30.6426ZM130.274 36.0036C129.234 37.031 128.243 38.138 127.332 39.2936C127.034 39.6697 126.488 39.7345 126.113 39.4351C125.737 39.1372 125.679 38.5938 125.971 38.2122C126.928 37.0014 127.965 35.8405 129.056 34.7631C129.398 34.4261 129.947 34.4301 130.283 34.7726C130.579 35.0733 130.611 35.5371 130.381 35.8742C130.351 35.92 130.314 35.9632 130.274 36.0036ZM121.609 47.2677C121.172 47.0694 120.978 46.5544 121.176 46.1162C121.722 44.9027 122.344 43.6986 123.022 42.5404C123.125 42.3637 123.229 42.1898 123.334 42.0159C123.571 41.6006 124.118 41.4752 124.528 41.7273C124.937 41.9781 125.065 42.5134 124.816 42.9246C124.717 43.0878 124.619 43.2509 124.522 43.4195C123.873 44.5278 123.279 45.6766 122.759 46.8335C122.738 46.8807 122.712 46.9265 122.684 46.967C122.45 47.3094 122 47.4443 121.611 47.2677H121.609Z" fill="#E8E9EA"/>
</g>
<g opacity="0.3">
<path d="M185.972 83.2508C185.101 84.4913 184.148 85.69 183.139 86.8131C182.818 87.1691 182.27 87.1988 181.914 86.8765C181.557 86.5543 181.535 86.0041 181.85 85.6468C182.814 84.5762 183.722 83.4328 184.553 82.249C184.828 81.8553 185.37 81.7609 185.762 82.0373C186.151 82.3124 186.248 82.849 185.98 83.2414C185.977 83.2441 185.976 83.2481 185.973 83.2508H185.972ZM187.184 79.7249C186.762 79.497 186.604 78.9698 186.831 78.5465C187.514 77.2723 188.125 75.9442 188.65 74.5972C188.825 74.1522 189.328 73.9284 189.775 74.1037C190.221 74.279 190.442 74.7832 190.267 75.2309C189.716 76.6413 189.075 78.0341 188.36 79.369C188.345 79.3973 188.329 79.4242 188.312 79.4498C188.065 79.8126 187.581 79.9366 187.186 79.7236L187.184 79.7249ZM179.892 90.006C178.749 90.9997 177.534 91.9314 176.284 92.7768C175.886 93.0452 175.346 92.94 175.08 92.5409C174.811 92.1418 174.917 91.6038 175.315 91.3328C176.509 90.5278 177.666 89.6379 178.758 88.69C179.121 88.3759 179.668 88.415 179.981 88.7777C180.245 89.0837 180.259 89.5206 180.042 89.8388C180 89.8995 179.952 89.9548 179.892 90.006ZM190.606 71.5176C190.142 71.3989 189.861 70.9243 189.98 70.4578C190.337 69.0568 190.611 67.6195 190.795 66.1862C190.857 65.7103 191.293 65.3732 191.767 65.4338C192.243 65.4959 192.579 65.9314 192.517 66.4087C192.325 67.9121 192.036 69.4195 191.662 70.8892C191.637 70.9904 191.594 71.0834 191.537 71.1656C191.337 71.4596 190.969 71.6106 190.606 71.5176ZM172.368 95.0852C171.023 95.7729 169.621 96.3837 168.202 96.9028C167.752 97.0673 167.253 96.834 167.089 96.3823C166.925 95.9306 167.157 95.4304 167.608 95.2659C168.963 94.771 170.299 94.1872 171.582 93.5319C172.009 93.3135 172.532 93.4847 172.748 93.9135C172.898 94.2074 172.864 94.5459 172.691 94.8007C172.611 94.9167 172.502 95.0164 172.368 95.0852ZM163.848 98.2053C162.375 98.5491 160.867 98.8066 159.367 98.9711C158.892 99.0237 158.463 98.6785 158.412 98.1999C158.36 97.7226 158.704 97.2924 159.181 97.2399C160.611 97.0835 162.048 96.8367 163.454 96.5091C163.921 96.3998 164.387 96.6911 164.496 97.1603C164.553 97.4071 164.5 97.6552 164.367 97.8493C164.248 98.0232 164.067 98.154 163.848 98.2053ZM154.828 99.1882C153.315 99.1693 151.788 99.0561 150.294 98.8525C149.818 98.7878 149.486 98.3495 149.55 97.8722C149.615 97.3963 150.053 97.0619 150.526 97.1266C151.952 97.3208 153.406 97.4286 154.849 97.4462C155.329 97.4529 155.712 97.8466 155.705 98.328C155.704 98.506 155.648 98.6718 155.555 98.808C155.396 99.0399 155.129 99.1909 154.828 99.1882Z" fill="#E8E9EA"/>
<path d="M192.671 62.303C192.765 62.1641 192.822 61.9969 192.822 61.8162C192.826 61.0706 192.807 60.3223 192.768 59.5915C192.742 59.1115 192.334 58.7434 191.854 58.769C191.377 58.796 191.009 59.2059 191.034 59.6859C191.072 60.383 191.089 61.0976 191.085 61.8095C191.083 62.2909 191.47 62.6819 191.948 62.6846C192.248 62.6846 192.513 62.5349 192.67 62.3043L192.671 62.303Z" fill="#E8E9EA"/>
</g>
<path d="M181.201 50.3742C181.149 50.1936 180.987 50.0668 180.799 50.0587L175.457 49.8133C174.225 47.6344 172.637 45.6362 170.72 43.9184L171.61 38.6302C171.641 38.4441 171.552 38.2594 171.387 38.1704L165.755 35.0894C165.591 34.9991 165.386 35.0234 165.248 35.1501L161.3 38.7637C158.822 38.0787 156.288 37.8212 153.794 37.9614L150.694 33.5887C150.585 33.435 150.392 33.369 150.211 33.4215L144.058 35.2391C143.878 35.2917 143.751 35.4535 143.743 35.6423L143.499 41.0019C141.327 42.2383 139.336 43.8321 137.623 45.7548L132.353 44.8622C132.167 44.8312 131.983 44.9202 131.895 45.086L128.824 50.7369C128.734 50.9028 128.759 51.1064 128.886 51.2453L132.487 55.2067C131.804 57.693 131.548 60.2347 131.688 62.7372L127.329 65.8478C127.176 65.957 127.109 66.1512 127.163 66.3319L128.974 72.5059C129.027 72.6866 129.188 72.8133 129.376 72.8214L134.719 73.0668C135.952 75.2457 137.54 77.244 139.456 78.9618L138.567 84.25C138.536 84.436 138.625 84.6207 138.79 84.7097L144.422 87.7907C144.586 87.881 144.79 87.8554 144.929 87.7287L148.877 84.1151C151.355 84.8001 153.888 85.0576 156.383 84.9174L159.483 89.2901C159.592 89.4438 159.785 89.5112 159.965 89.4572L166.119 87.6397C166.299 87.5871 166.425 87.4253 166.433 87.2365L166.678 81.8769C168.85 80.6404 170.841 79.0467 172.553 77.124L177.824 78.0166C178.009 78.0476 178.194 77.9586 178.282 77.7927L181.353 72.1418C181.443 71.9774 181.419 71.7724 181.291 71.6335L177.69 67.6721C178.372 65.1858 178.629 62.6441 178.489 60.1416L182.847 57.031C183.001 56.9218 183.066 56.7276 183.014 56.5469L181.203 50.3729L181.201 50.3742Z" fill="#E8E9EA"/>
<path d="M159.905 65.9112C158.714 67.2029 157.093 67.9526 155.341 68.02C153.59 68.0888 151.916 67.4685 150.628 66.2739C147.971 63.8078 147.81 59.64 150.267 56.9663C152.725 54.3006 156.886 54.1388 159.542 56.6036C160.829 57.7982 161.575 59.4243 161.644 61.1812C161.699 62.6104 161.301 63.9871 160.511 65.1467C160.329 65.4136 160.127 65.6685 159.905 65.9098V65.9112ZM151.807 64.9957C152.754 65.8748 153.985 66.3305 155.274 66.2806C156.563 66.2307 157.755 65.6793 158.631 64.7287C159.506 63.7781 159.961 62.543 159.912 61.25C159.862 59.9569 159.312 58.7609 158.366 57.8832C156.412 56.0696 153.351 56.1883 151.543 58.1488C151.381 58.3254 151.233 58.5115 151.101 58.7057C149.772 60.654 150.031 63.3453 151.809 64.9957H151.807Z" fill="white"/>
<path d="M168.436 70.7409C168.746 70.2865 169.035 69.8119 169.304 69.3184C169.837 68.3382 170.272 67.3027 170.595 66.2375C170.61 66.1889 170.624 66.1417 170.638 66.0932C170.747 65.7224 170.599 65.3368 170.297 65.1291C170.223 65.0793 170.141 65.0388 170.051 65.0118C169.592 64.8757 169.11 65.1413 168.973 65.6011C168.68 66.5988 168.279 67.5683 167.78 68.4838C167.753 68.5351 167.725 68.5849 167.697 68.6348C166.498 70.7922 164.809 72.5666 162.781 73.8529C161.68 74.55 160.48 75.1042 159.202 75.4938C159.191 75.4965 159.182 75.5006 159.171 75.5033C159.139 75.5127 159.108 75.5222 159.076 75.5316C155.332 76.6372 151.382 76.2139 147.957 74.3383C147.513 74.0956 147.086 73.8327 146.675 73.5509C143.907 71.6511 141.894 68.8775 140.935 65.6065C139.833 61.85 140.256 57.8886 142.124 54.4503C143.992 51.0161 147.083 48.5108 150.827 47.4039C154.571 46.2982 158.521 46.7216 161.946 48.5971C162.383 48.8358 162.805 49.096 163.212 49.3751C164.977 50.5873 166.458 52.1729 167.542 54.0242C167.609 54.1388 167.698 54.2319 167.8 54.3006C168.069 54.4853 168.43 54.5096 168.73 54.333C169.143 54.0876 169.281 53.5563 169.038 53.141C167.824 51.07 166.167 49.2956 164.193 47.9391C163.738 47.6263 163.265 47.3351 162.777 47.0681C158.943 44.9701 154.524 44.4968 150.335 45.7346C146.146 46.971 142.687 49.7675 140.599 53.617C138.508 57.4638 138.036 61.8958 139.27 66.0986C140.342 69.758 142.596 72.8605 145.691 74.9869C146.15 75.3024 146.629 75.5977 147.125 75.8687C154.547 79.9285 163.759 77.5972 168.434 70.7423L168.436 70.7409Z" fill="white"/>
</g>
<path d="M78.9281 64.8426C78.9281 64.8426 91.0655 85.3528 111.508 79.5843L108.952 87.9168C108.952 87.9168 82.7606 91.762 75.0956 77.6623L78.9281 64.8439V64.8426Z" fill="url(#paint0_linear_146_913)"/>
<path d="M50.0864 16.4476C50.0864 16.4476 51.0576 18.3978 44.7311 21.4445C41.2031 23.1431 34.3392 25.6544 33.4345 32.9905C32.9674 36.778 30.1739 39.8106 26.4144 40.3883C17.05 41.8288 2.6195 46.7064 0.311032 63.0182C-1.45103 75.4681 4.8755 80.1903 11.5143 81.8234C16.391 83.0238 19.631 87.782 18.6444 92.7211C17.6988 97.4587 19.1089 102.936 27.2896 107.266C45.6205 116.971 63.927 84.2744 63.927 84.2744L67.6789 27.1835L50.0877 16.4463L50.0864 16.4476Z" fill="#434343"/>
<path d="M60.6792 165.977L61.8359 172.805C61.8359 172.805 57.9612 212.18 57.2728 227.929C57.1653 230.398 57.8012 232.839 59.0924 234.943L65.8297 245.919L48.7081 235.783L48.3678 233.686L51.1702 229.82L47.4989 185.711C47.2826 183.12 47.8162 180.521 49.0344 178.226L52.5765 171.551L60.6804 165.977H60.6792Z" fill="url(#paint1_linear_146_913)"/>
<path d="M37.2284 169.221C37.2284 169.221 14.5315 212.418 10.9229 222.281C7.31434 232.144 6.05134 240.371 6.00271 241.151C5.92722 242.368 4.41852 243.536 0.257138 243.536C-1.89009 243.536 -2.94196 242.672 -3.45637 241.836C-3.89529 241.124 -3.91832 240.231 -3.54851 239.479C-2.2356 236.814 1.93091 228.294 3.47415 224.429C5.31683 219.816 9.27987 198.908 11.4527 191.639C13.6268 184.369 16.0824 176.484 25.5479 169.221C25.5479 169.221 32.0446 162.836 37.2272 169.221H37.2284Z" fill="url(#paint2_linear_146_913)"/>
<path d="M51.5668 98.4383C57.4211 73.5462 42.5901 59.4683 42.5901 59.4683C50.1105 52.2258 62.5972 48.1546 67.2129 46.8348C68.3454 46.5112 69.5559 46.7616 70.4721 47.5037C74.4326 50.7121 84.9116 60.0306 83.3402 67.6313C82.209 73.1071 71.9028 100.427 71.9028 100.427C71.9028 100.427 62.3733 104.951 51.5655 98.4396L51.5668 98.4383Z" fill="url(#paint3_linear_146_913)"/>
<path d="M38.586 110.762C40.9687 103.561 51.5667 98.4396 51.5667 98.4396C62.3745 104.952 71.9039 100.427 71.9039 100.427C71.9039 100.427 74.041 108.623 72.5655 116.24C71.0901 123.856 61.837 172.805 61.837 172.805C47.2556 175.77 24.8286 169.823 24.8286 169.823C34.1162 153.279 36.2033 117.964 38.586 110.762Z" fill="url(#paint4_linear_146_913)"/>
<path d="M58.363 29.9041L53.6028 51.3566C53.1472 53.2465 54.8645 52.9371 56.7686 52.5763C59.8871 51.987 63.9064 50.7712 65.2488 48.3369C65.3857 48.0891 65.4535 47.8092 65.4919 47.5281L67.5368 32.6529C67.6993 31.473 67.0633 30.3277 65.9782 29.845L62.0318 28.0899C60.5128 27.4133 58.7533 28.2838 58.363 29.9041Z" fill="url(#paint5_linear_146_913)"/>
<path d="M67.4804 10.3478C67.4804 10.3478 72.5477 13.7899 74.7257 22.5551C76.9036 31.3202 73.3641 34.4645 69.7363 34.2719C66.1086 34.0793 60.8493 32.9533 56.2925 26.6661C51.7357 20.3776 60.839 6.14305 67.4804 10.3491V10.3478Z" fill="url(#paint6_linear_146_913)"/>
<path d="M60.889 23.1302C60.889 23.1302 59.0322 10.5712 69.4254 12.4919L71.5266 14.6874C71.5266 14.6874 76.6132 8.93937 70.984 4.59468C65.3549 0.249981 57.5427 1.36183 53.2201 9.2719C48.8975 17.182 47.3299 22.7399 50.9526 27.656C54.5752 32.5707 57.3009 28.3557 57.3009 28.3557C57.3009 28.3557 55.6399 24.1009 57.0181 22.2764C58.3962 20.4508 60.1749 23.3382 60.1749 23.3382L60.8903 23.1315L60.889 23.1302Z" fill="#434343"/>
<path d="M59.4686 24.2061C59.4686 24.2061 58.5524 17.7443 55.2624 19.5918C51.9737 21.4394 56.4474 25.6274 58.2414 27.0525L59.4673 24.2061H59.4686Z" fill="url(#paint7_linear_146_913)"/>
<path d="M42.5222 59.8342C42.5222 59.8342 32.4182 76.0536 30.3976 88.2185C28.3771 100.383 47.5742 105.452 54.6468 98.3561L53.6359 93.2873C53.6359 93.2873 42.5222 95.3146 41.5113 89.2327C40.5004 83.1497 50.6044 70.9861 50.6044 70.9861C50.6044 70.9861 47.5729 61.8627 42.5209 59.8354L42.5222 59.8342Z" fill="url(#paint8_linear_146_913)"/>
<path d="M13.7893 74.4924C13.5206 74.4924 13.2084 74.3717 12.9384 74.1945C8.66309 71.3995 6.3815 65.6309 7.39369 60.168C7.99896 56.8953 9.61642 54.0721 11.9492 52.2194C13.6038 50.9034 15.5693 50.101 17.4414 49.391C20.5983 48.1931 23.8524 47.1378 27.1142 46.2532C27.3804 46.1813 27.6478 46.1094 27.9152 46.0387C29.8245 45.529 31.7977 45.0026 33.584 44.1052C35.8759 42.9548 37.5458 41.2806 38.2867 39.3907C38.7474 38.2173 38.8805 36.918 39.0084 35.661C39.1645 34.1255 39.3271 32.5373 40.0923 31.1802C40.1076 31.1546 40.1396 31.1456 40.1652 31.1597C40.1908 31.1738 40.1998 31.2072 40.1857 31.2329C39.4307 32.5707 39.2695 34.1473 39.1146 35.6713C38.9854 36.9347 38.8523 38.2417 38.3865 39.4293C37.6354 41.3435 35.9463 43.037 33.6314 44.2002C31.8348 45.1015 29.8565 45.6305 27.9421 46.1414C27.6747 46.2133 27.4072 46.284 27.1411 46.3559C23.8831 47.2392 20.6328 48.2933 17.4785 49.4898C15.6154 50.196 13.6588 50.9959 12.0157 52.3016C9.70472 54.1388 8.10005 56.939 7.49862 60.186C6.49538 65.6078 8.75651 71.3314 12.9972 74.1034C13.3184 74.3139 13.9352 74.5694 14.2039 74.192C14.2206 74.1676 14.2551 74.1624 14.2781 74.1791C14.3025 74.1958 14.3076 74.2305 14.2909 74.2536C14.1719 74.4205 13.9915 74.4898 13.788 74.4898L13.7893 74.4924Z" fill="white"/>
<path d="M12.6913 69.3389C12.6747 69.3389 12.6567 69.3312 12.6465 69.3158C10.9971 66.8417 10.1384 64.2444 10.164 61.8063C10.1922 58.9522 11.5127 56.2984 13.6101 54.8797C13.6344 54.8643 13.6677 54.8694 13.6843 54.8938C13.7009 54.9182 13.6945 54.9516 13.6702 54.9683C11.6023 56.3664 10.2997 58.9868 10.2715 61.8063C10.2472 64.2226 11.0994 66.7993 12.7374 69.2554C12.754 69.2798 12.7476 69.3132 12.7233 69.3299C12.7143 69.3363 12.7041 69.3389 12.6939 69.3389H12.6913Z" fill="white"/>
<path d="M6.31766 134.645L25.3516 126.711C25.8058 126.521 26.0211 125.999 25.8324 125.543L21.901 116.048C21.7123 115.592 21.1911 115.376 20.7368 115.566L1.70288 123.499C1.24864 123.689 1.03338 124.212 1.22209 124.668L5.15349 134.162C5.3422 134.618 5.86342 134.834 6.31766 134.645Z" fill="#434343"/>
<path d="M12.3215 111.809L158.748 59.5582L166.495 81.1494L20.1196 134.86C17.0101 136 13.541 134.735 11.8749 131.866C10.164 128.918 8.52864 124.311 8.4301 117.412C8.39427 114.903 9.96567 112.651 12.3215 111.81V111.809Z" fill="#0057B3"/>
<path d="M158.748 59.5594C157.821 73.0904 166.495 81.1507 166.495 81.1507L187.683 65.8492C184.598 61.7035 184.24 60.0923 184.218 57.2985L158.748 59.5594Z" fill="#2994E3"/>
<path d="M187.688 65.8301C188.461 65.5149 188.311 63.3451 187.354 60.9838C186.397 58.6224 184.995 56.9637 184.222 57.2789C183.45 57.5941 183.6 59.7639 184.557 62.1252C185.514 64.4865 186.916 66.1452 187.688 65.8301Z" fill="#0057B3"/>
<path d="M186.083 63.5172L192.716 60.8107C192.893 60.7386 192.978 60.5363 192.906 60.359L191.789 57.6034C191.717 57.426 191.516 57.3407 191.339 57.4128L184.706 60.1194C184.529 60.1915 184.444 60.3937 184.516 60.5711L185.633 63.3267C185.704 63.504 185.906 63.5894 186.083 63.5172Z" fill="#434343"/>
<path d="M53.2251 92.7815L65.9831 91.7377L71.5086 96.8476C71.5086 96.8476 70.2008 98.6604 66.1149 97.6179C62.0277 96.5754 56.4306 96.3199 56.4306 96.3199C56.4306 96.3199 50.7886 98.8723 50.7208 94.0975L53.2264 92.7802L53.2251 92.7815Z" fill="url(#paint9_linear_146_913)"/>
<rect y="170" width="193" height="2" fill="#0057B3"/>
</g>
<defs>
<linearGradient id="paint0_linear_146_913" x1="115.894" y1="56.8748" x2="52.3174" y2="112.987" gradientUnits="userSpaceOnUse">
<stop stop-color="#FEBBBA"/>
<stop offset="1" stop-color="#FF928E"/>
</linearGradient>
<linearGradient id="paint1_linear_146_913" x1="62.8481" y1="294.066" x2="43.7044" y2="71.0778" gradientUnits="userSpaceOnUse">
<stop stop-color="#FEBBBA"/>
<stop offset="1" stop-color="#FF928E"/>
</linearGradient>
<linearGradient id="paint2_linear_146_913" x1="24.5933" y1="297.384" x2="5.44569" y2="74.3376" gradientUnits="userSpaceOnUse">
<stop stop-color="#FEBBBA"/>
<stop offset="1" stop-color="#FF928E"/>
</linearGradient>
<linearGradient id="paint3_linear_146_913" x1="42.5901" y1="74.3266" x2="83.4994" y2="74.3266" gradientUnits="userSpaceOnUse">
<stop stop-color="#FF9C00"/>
<stop offset="1" stop-color="#FFAA1A"/>
</linearGradient>
<linearGradient id="paint4_linear_146_913" x1="24.8286" y1="136.037" x2="73.0849" y2="136.037" gradientUnits="userSpaceOnUse">
<stop stop-color="#FF9C00"/>
<stop offset="1" stop-color="#FFAA1A"/>
</linearGradient>
<linearGradient id="paint5_linear_146_913" x1="64.9327" y1="74.2562" x2="61.3379" y2="48.0384" gradientUnits="userSpaceOnUse">
<stop stop-color="#FEBBBA"/>
<stop offset="1" stop-color="#FFB6B4"/>
</linearGradient>
<linearGradient id="paint6_linear_146_913" x1="71.3222" y1="42.6556" x2="51.402" y2="-17.9763" gradientUnits="userSpaceOnUse">
<stop stop-color="#FEBBBA"/>
<stop offset="1" stop-color="#FF928E"/>
</linearGradient>
<linearGradient id="paint7_linear_146_913" x1="64.0897" y1="45.0314" x2="44.1702" y2="-15.5978" gradientUnits="userSpaceOnUse">
<stop stop-color="#FEBBBA"/>
<stop offset="1" stop-color="#FF928E"/>
</linearGradient>
<linearGradient id="paint8_linear_146_913" x1="54.6468" y1="80.7167" x2="30.2492" y2="80.7167" gradientUnits="userSpaceOnUse">
<stop stop-color="#FEBBBA"/>
<stop offset="1" stop-color="#FFB5B3"/>
</linearGradient>
<linearGradient id="paint9_linear_146_913" x1="73.8695" y1="84.1563" x2="38.5691" y2="115.31" gradientUnits="userSpaceOnUse">
<stop stop-color="#FEBBBA"/>
<stop offset="1" stop-color="#FF928E"/>
</linearGradient>
<clipPath id="clip0_146_913">
<rect width="193" height="172" fill="white"/>
</clipPath>
</defs>
</svg>
