<svg width="125" height="50" viewBox="0 0 125 50" fill="none" xmlns="http://www.w3.org/2000/svg">
<g id="logo 1" clip-path="url(#clip0_99_790)">
<path id="Vector" d="M27.807 45.8203H28.8976C29.1131 45.8203 29.2855 45.9937 29.2855 46.2105V48.322H27.4191V46.2105C27.4191 45.9937 27.5915 45.8203 27.807 45.8203Z" fill="#0057B3"/>
<path id="Vector_2" d="M48.3034 13.3108V14.2993C48.3034 14.8456 47.868 15.2879 47.3249 15.2879H47.3206H38.2427V18.3402H46.0619C46.6007 18.3446 47.0404 18.7868 47.0447 19.3288V20.3173C47.0404 20.8593 46.6007 21.3016 46.0619 21.3059H38.2427V24.4016H47.299C47.8292 24.4016 48.2603 24.8309 48.2603 25.3598C48.2603 25.3642 48.2603 25.3642 48.2603 25.3685V26.3787C48.2603 26.925 47.8249 27.3673 47.2818 27.3673H47.2775H35.2943C34.7383 27.3673 34.3115 26.9164 34.3115 26.3571V13.2891C34.3115 12.7514 34.7598 12.3222 35.2943 12.3222H47.3206C47.8637 12.3222 48.3034 12.7601 48.3034 13.3064V13.3108Z" fill="#434343"/>
<path id="Vector_3" d="M57.0407 12.3222C63.1314 12.3222 65.6918 14.7069 65.6918 19.8448C65.6918 24.9826 63.1271 27.3673 57.0407 27.3673H51.2086C50.6741 27.3673 50.2258 26.9381 50.2258 26.4004V13.3324C50.2258 12.7731 50.6526 12.3222 51.2086 12.3222H57.0407ZM54.157 15.2879V24.3973H56.9329C60.7563 24.3973 61.7607 23.0662 61.7607 19.8404C61.7607 16.6146 60.7563 15.2835 56.9329 15.2835L54.157 15.2879Z" fill="#434343"/>
<path id="Vector_4" d="M67.83 13.3108C67.83 12.7645 68.2653 12.3222 68.8084 12.3222H68.8127H70.7567C71.3128 12.3222 71.7611 12.7514 71.7611 13.3108V26.3744C71.7611 26.912 71.3128 27.363 70.7567 27.363H68.8127C68.2782 27.363 67.83 26.9337 67.83 26.3961V13.3108Z" fill="#434343"/>
<path id="Vector_5" d="M80.6494 12.2355H83.296C85.9858 12.2355 88.8738 13.8051 88.8738 16.103C88.8738 17.0699 88.085 17.265 87.8048 17.265H86.5634C85.9642 17.265 85.4944 16.9875 85.1539 16.2765C84.8133 15.5437 83.9987 15.2012 82.934 15.2012H79.7916C78.5114 15.2012 77.9553 15.6521 77.9553 16.4065C77.9553 18.8996 89.2575 17.4601 89.2575 23.0663C89.2575 25.646 87.7617 27.4497 82.6365 27.4497H79.4769C76.7872 27.4497 73.8992 25.8802 73.8992 23.5822C73.8992 22.6153 74.688 22.4202 74.9682 22.4202H76.2096C76.8088 22.4202 77.2786 22.6977 77.6191 23.4088C77.9597 24.1372 78.7743 24.4841 79.839 24.4841H83.4943C84.7745 24.4841 85.3306 24.0331 85.3306 23.2787C85.3306 20.7857 74.0285 22.1818 74.0285 16.619C74.0285 14.0392 75.5242 12.2355 80.6494 12.2355Z" fill="#434343"/>
<path id="Vector_6" d="M98.9387 11.9971C104.279 11.9971 107.336 14.2517 107.336 19.8405C107.336 25.4293 104.279 27.6839 98.9387 27.6839C93.598 27.6839 90.5419 25.4293 90.5419 19.8405C90.5419 14.2517 93.598 11.9971 98.9387 11.9971ZM94.473 19.8405C94.473 23.0663 95.7317 24.8483 98.9387 24.8483C102.146 24.8483 103.404 23.0663 103.404 19.8405C103.404 16.6147 102.141 14.8327 98.9387 14.8327C95.736 14.8327 94.473 16.619 94.473 19.8405Z" fill="#434343"/>
<path id="Vector_7" d="M110.452 27.363C109.913 27.3586 109.474 26.9164 109.469 26.3744V13.3108C109.469 12.7731 109.896 12.3222 110.431 12.3222H113.508C114.021 12.3222 114.62 12.8165 114.939 13.3108L121.241 23.0662V13.2891C121.241 12.7515 121.69 12.3222 122.224 12.3222H124.017C124.552 12.3135 124.991 12.7384 125 13.2761C125 13.2891 125 13.2978 125 13.3108V26.3744C125 26.9207 124.565 27.363 124.022 27.363H124.017H120.556C120 27.363 119.379 26.9121 119.039 26.3744L113.267 17.369V26.3744C113.263 26.9164 112.823 27.3586 112.284 27.363H110.452Z" fill="#434343"/>
<path id="Vector_8" d="M40.9971 34.5517H43.6481C46.3421 34.5517 49.2258 36.1212 49.2258 38.4192C49.2258 39.3861 48.437 39.5812 48.1568 39.5812H46.9154C46.3163 39.5812 45.8464 39.2994 45.5059 38.5926C45.1653 37.8642 44.3507 37.5174 43.286 37.5174H40.1436C38.8634 37.5174 38.3073 37.9683 38.3073 38.7227C38.3073 41.2158 49.6095 39.7763 49.6095 45.3824C49.6095 47.9622 48.1137 49.7659 42.9885 49.7659H39.8289C37.1349 49.7659 34.2512 48.1963 34.2512 45.8984C34.2512 44.9315 35.04 44.7364 35.3202 44.7364H36.5573C37.1564 44.7364 37.6263 45.0139 37.9668 45.7249C38.3073 46.4577 39.122 46.8002 40.1867 46.8002H43.842C45.1222 46.8002 45.6783 46.3493 45.6783 45.5949C45.6783 43.1018 34.3762 44.4979 34.3762 38.9308C34.3762 36.3554 35.8719 34.5517 40.9971 34.5517Z" fill="#434343"/>
<path id="Vector_9" d="M64.0496 34.6384C64.5841 34.6297 65.0238 35.0589 65.0324 35.5966C65.0324 35.6052 65.0324 35.6183 65.0324 35.6269V36.6155C65.041 37.1531 64.6143 37.5954 64.0798 37.604C64.0711 37.604 64.0582 37.604 64.0496 37.604H59.3943V48.7123C59.3943 49.2499 58.946 49.6791 58.4115 49.6791H56.4459C55.9114 49.6791 55.4631 49.2499 55.4631 48.7123V37.604H50.8077C50.2732 37.6127 49.8336 37.1835 49.825 36.6458C49.825 36.6372 49.825 36.6242 49.825 36.6155V35.6269C49.8163 35.0893 50.2431 34.647 50.7776 34.6384C50.7862 34.6384 50.7991 34.6384 50.8077 34.6384H64.0496Z" fill="#434343"/>
<path id="Vector_10" d="M74.8818 46.8002C76.7828 46.8002 77.6363 45.8117 77.6363 43.7479V35.627C77.6363 35.0807 78.0716 34.6384 78.6147 34.6384H78.6191H80.5631C81.1191 34.6384 81.5674 35.0677 81.5674 35.627V43.7305C81.5674 47.533 79.3432 49.7702 74.9853 49.7702H73.1059C68.748 49.7702 66.5238 47.533 66.5238 43.7305V35.627C66.5238 35.0677 66.9721 34.6384 67.5281 34.6384H69.4722C70.0153 34.6384 70.455 35.0763 70.455 35.6226V35.627V43.7479C70.455 45.8117 71.3085 46.8002 73.2094 46.8002H74.8818Z" fill="#434343"/>
<path id="Vector_11" d="M91.1627 34.6384C97.2534 34.6384 99.8138 37.0231 99.8138 42.161C99.8138 47.2989 97.2491 49.6835 91.1627 49.6835H85.3306C84.7961 49.6835 84.3478 49.2543 84.3478 48.7166V35.6487C84.3478 35.0893 84.7745 34.6384 85.3306 34.6384H91.1627ZM88.2789 37.6041V46.7135H91.0549C94.8783 46.7135 95.8827 45.3824 95.8827 42.1566C95.8827 38.9308 94.8783 37.5998 91.0549 37.5998H88.2789V37.6041Z" fill="#434343"/>
<path id="Vector_12" d="M101.952 35.627C101.952 35.0807 102.387 34.6384 102.93 34.6384H102.935H104.879C105.435 34.6384 105.883 35.0677 105.883 35.627V48.6906C105.883 49.2283 105.435 49.6792 104.879 49.6792H102.935C102.4 49.6792 101.952 49.2499 101.952 48.7123V35.627Z" fill="#B3B3B3"/>
<path id="Vector_13" d="M116.418 34.3132C121.759 34.3132 124.815 36.5678 124.815 42.1566C124.815 47.7454 121.759 50 116.418 50C111.077 50 108.021 47.7454 108.021 42.1566C108.021 36.5678 111.073 34.3132 116.418 34.3132ZM111.952 42.1566C111.952 45.3781 113.215 47.1644 116.418 47.1644C119.621 47.1644 120.884 45.3824 120.884 42.1566C120.884 38.9308 119.625 37.1488 116.418 37.1488C113.211 37.1488 111.952 38.9352 111.952 42.1566Z" fill="#434343"/>
<path id="Vector_14" d="M7.84079 47.6674H31.3373C31.5657 47.6674 31.7554 47.8538 31.7554 48.0879V49.2586C31.7554 49.4884 31.5701 49.6792 31.3373 49.6792H7.84079C7.61233 49.6792 7.42267 49.4927 7.42267 49.2586V48.0879C7.42267 47.8538 7.60802 47.6674 7.84079 47.6674Z" fill="#434343"/>
<path id="Vector_15" d="M27.0138 46.3102H29.6907C29.7984 46.3102 29.8889 46.4013 29.8889 46.5097V48.1269C29.8889 48.2353 29.7984 48.3264 29.6907 48.3264H27.0138C26.9061 48.3264 26.8156 48.2353 26.8156 48.1269V46.5097C26.8156 46.4013 26.9061 46.3102 27.0138 46.3102Z" fill="#434343"/>
<path id="Vector_16" d="M9.20292 43.6915H20.38C20.5654 43.6915 20.7162 43.8432 20.7162 44.0297V48.5995C20.7162 48.786 20.5654 48.9377 20.38 48.9377H9.20292C9.01757 48.9377 8.8667 48.786 8.8667 48.5995V44.0297C8.8667 43.8432 9.01757 43.6915 9.20292 43.6915Z" fill="#434343"/>
<path id="Vector_17" d="M9.16412 36.3337H20.4188C20.5826 36.3337 20.7162 36.4681 20.7162 36.6328V37.4697C20.7162 37.6344 20.5826 37.7688 20.4188 37.7688H9.16412C9.00032 37.7688 8.8667 37.6344 8.8667 37.4697V36.6328C8.8667 36.4681 9.00032 36.3337 9.16412 36.3337Z" fill="#0057B3"/>
<path id="Vector_18" d="M9.16412 38.6317H16.4833C16.6471 38.6317 16.7808 38.7661 16.7808 38.9308V39.7676C16.7808 39.9324 16.6471 40.0668 16.4833 40.0668H9.16412C9.00032 40.0668 8.8667 39.9324 8.8667 39.7676V38.9308C8.8667 38.7661 9.00032 38.6317 9.16412 38.6317Z" fill="#0057B3"/>
<path id="Vector_19" d="M9.16412 40.9296H20.4188C20.5826 40.9296 20.7162 41.064 20.7162 41.2287V42.0655C20.7162 42.2303 20.5826 42.3647 20.4188 42.3647H9.16412C9.00032 42.3647 8.8667 42.2303 8.8667 42.0655V41.2287C8.8667 41.064 9.00032 40.9296 9.16412 40.9296Z" fill="#0057B3"/>
<path id="Vector_20" d="M11.3539 36.3683H9.9314V42.3213H11.3539V36.3683Z" fill="#0057B3"/>
<path id="Vector_21" d="M9.16412 33.5718H13.5651C13.7289 33.5718 13.8626 33.7062 13.8626 33.8709V34.7078C13.8626 34.8725 13.7289 35.0069 13.5651 35.0069H9.16412C9.00032 35.0069 8.8667 34.8725 8.8667 34.7078V33.8709C8.8667 33.7062 9.00032 33.5718 9.16412 33.5718Z" fill="#FFAA1A"/>
<path id="Vector_22" d="M16.0436 33.5718H20.4447C20.6085 33.5718 20.7421 33.7062 20.7421 33.8709V34.7078C20.7421 34.8725 20.6085 35.0069 20.4447 35.0069H16.0436C15.8798 35.0069 15.7462 34.8725 15.7462 34.7078V33.8709C15.7462 33.7062 15.8798 33.5718 16.0436 33.5718Z" fill="#FFAA1A"/>
<path id="Vector_23" d="M13.8626 12.1228V34.556C13.8626 34.7208 13.7289 34.8552 13.5651 34.8552H12.7332C12.5694 34.8552 12.4358 34.7208 12.4358 34.556V12.1228C12.4358 11.958 12.5694 11.8236 12.7332 11.8236H13.5651C13.7289 11.8279 13.8626 11.958 13.8626 12.1228Z" fill="#FFAA1A"/>
<path id="Vector_24" d="M17.1514 15.6695V25.3165C17.1514 25.4813 17.0178 25.6157 16.854 25.6157H16.0221C15.8583 25.6157 15.7247 25.4813 15.7247 25.3165V15.6695C15.7247 15.5047 15.8583 15.3703 16.0221 15.3703H16.854C17.0178 15.3703 17.1514 15.5047 17.1514 15.6695Z" fill="#FFAA1A"/>
<path id="Vector_25" d="M11.3668 9.35227V18.9993C11.3668 19.1641 11.2332 19.2985 11.0694 19.2985H10.2374C10.0736 19.2985 9.94 19.1641 9.94 18.9993V9.35227C9.94 9.18751 10.0736 9.0531 10.2374 9.0531H11.0694C11.2332 9.0531 11.3668 9.18751 11.3668 9.35227Z" fill="#FFAA1A"/>
<path id="Vector_26" d="M11.3668 20.2524V22.8451C11.3668 23.0099 11.2332 23.1443 11.0694 23.1443H10.2374C10.0736 23.1443 9.94 23.0099 9.94 22.8451V20.2524C9.94 20.0876 10.0736 19.9532 10.2374 19.9532H11.0694C11.2332 19.9532 11.3668 20.0876 11.3668 20.2524Z" fill="#FFAA1A"/>
<path id="Vector_27" d="M17.1514 12.1228V14.7156C17.1514 14.8803 17.0178 15.0147 16.854 15.0147H16.0221C15.8583 15.0147 15.7247 14.8803 15.7247 14.7156V12.1228C15.7247 11.958 15.8583 11.8236 16.0221 11.8236H16.854C17.0178 11.8279 17.1514 11.958 17.1514 12.1228Z" fill="#FFAA1A"/>
<path id="Vector_28" d="M29.5829 15.0494C29.5915 18.9299 28.1001 22.6587 25.4233 25.4509C25.4103 25.4639 25.4017 25.4726 25.3931 25.4856C25.1345 25.8324 21.3326 31.0353 20.699 34.6124C20.6645 34.8378 20.4705 35.0026 20.2464 35.0069C19.992 35.0069 19.7895 34.7988 19.7895 34.543V32.4792C19.7895 32.4575 19.7895 32.4358 19.7938 32.4141C20.1602 29.3748 23.5999 24.6574 23.8456 24.3236C23.8543 24.3106 23.8672 24.2976 23.8758 24.2889C26.1561 21.9042 27.432 18.7218 27.4233 15.4136C27.4233 8.41567 21.8628 2.72281 14.9445 2.56673C14.897 2.56239 14.8453 2.56239 14.7979 2.56673C14.7462 2.56239 14.6945 2.56239 14.647 2.56673C7.72438 2.72281 2.16384 8.41133 2.16384 15.4093C2.15953 18.7174 3.43113 21.8999 5.71138 24.2846C5.72431 24.2976 5.73293 24.3062 5.74155 24.3193C5.98725 24.6531 9.42703 29.3704 9.79342 32.4098C9.79773 32.4315 9.79773 32.4531 9.79773 32.4748V34.5386C9.79773 34.7945 9.59083 34.9982 9.34082 34.9982C9.11236 34.9939 8.9227 34.8291 8.88822 34.6037C8.25026 31.031 4.44841 25.8281 4.19409 25.4769C4.18547 25.4639 4.17253 25.4509 4.16391 25.4422C1.4871 22.6587 -0.00864496 18.9299 -2.39746e-05 15.0494C-2.39746e-05 6.8548 6.51313 0.186391 14.6169 0.00428942C14.6772 -4.63432e-05 14.7332 -4.63432e-05 14.7936 0.00428942C14.8496 -4.63432e-05 14.91 -4.63432e-05 14.966 0.00428942C23.0697 0.186391 29.5829 6.8548 29.5829 15.0494Z" fill="#FFAA1A"/>
<path id="Vector_29" d="M7.9399 17.3734C8.44935 17.3734 8.86235 16.958 8.86235 16.4456C8.86235 15.9331 8.44935 15.5177 7.9399 15.5177C7.43045 15.5177 7.01746 15.9331 7.01746 16.4456C7.01746 16.958 7.43045 17.3734 7.9399 17.3734Z" fill="#FFAA1A"/>
<path id="Vector_30" d="M19.6472 9.33487V18.9819C19.6472 19.1467 19.5136 19.2811 19.3498 19.2811H18.5179C18.3541 19.2811 18.2205 19.1467 18.2205 18.9819V9.33487C18.2205 9.17011 18.3541 9.03571 18.5179 9.03571H19.3541C19.5179 9.03571 19.6472 9.17011 19.6472 9.33487Z" fill="#FFAA1A"/>
<path id="Vector_31" d="M19.6472 20.2307V22.8235C19.6472 22.9882 19.5136 23.1226 19.3498 23.1226H18.5179C18.3541 23.1226 18.2205 22.9882 18.2205 22.8235V20.2307C18.2205 20.0659 18.3541 19.9315 18.5179 19.9315H19.3498C19.5179 19.9359 19.6472 20.0659 19.6472 20.2307Z" fill="#FFAA1A"/>
<path id="Vector_32" d="M21.6473 17.3561C22.1568 17.3561 22.5698 16.9407 22.5698 16.4282C22.5698 15.9158 22.1568 15.5004 21.6473 15.5004C21.1379 15.5004 20.7249 15.9158 20.7249 16.4282C20.7249 16.9407 21.1379 17.3561 21.6473 17.3561Z" fill="#FFAA1A"/>
<path id="Vector_33" d="M101.534 35.0373H106.28C106.417 35.0373 106.525 35.15 106.525 35.2844V37.8686C106.525 38.0073 106.413 38.1157 106.28 38.1157H101.534C101.396 38.1157 101.288 38.003 101.288 37.8686V35.2844C101.288 35.15 101.396 35.0373 101.534 35.0373Z" fill="#0057B3"/>
</g>
<defs>
<clipPath id="clip0_99_790">
<rect width="125" height="50" fill="white"/>
</clipPath>
</defs>
</svg>
