<svg width="18" height="19" viewBox="0 0 18 19" fill="none" xmlns="http://www.w3.org/2000/svg">
<g id="button icon" clip-path="url(#clip0_305_219)">
<path id="Vector" d="M16.2 9.50003C16.2 8.50733 15.3927 7.70003 14.4 7.70003H13.5V5.00003C13.5 2.51873 11.4813 0.500031 9.00005 0.500031C6.51875 0.500031 4.50005 2.51873 4.50005 5.00003V7.70003H3.60005C2.60735 7.70003 1.80005 8.50733 1.80005 9.50003V16.7C1.80005 17.6927 2.60735 18.5 3.60005 18.5H14.4C15.3927 18.5 16.2 17.6927 16.2 16.7V9.50003ZM6.30005 5.00003C6.30005 3.51143 7.51145 2.30003 9.00005 2.30003C10.4886 2.30003 11.7 3.51143 11.7 5.00003V7.70003H6.30005V5.00003Z" fill="#B3B3B3"/>
</g>
<defs>
<clipPath id="clip0_305_219">
<rect width="18" height="18" fill="white" transform="translate(0 0.500031)"/>
</clipPath>
</defs>
</svg>
