<svg width="18" height="19" viewBox="0 0 18 19" fill="none" xmlns="http://www.w3.org/2000/svg">
<g id="button icon">
<path id="Vector" d="M16.2 2.50003H1.8C0.81 2.50003 0.00899999 3.28753 0.00899999 4.25003L0 14.75C0 15.7125 0.81 16.5 1.8 16.5H16.2C17.19 16.5 18 15.7125 18 14.75V4.25003C18 3.28753 17.19 2.50003 16.2 2.50003ZM15.84 6.21878L9.477 10.0863C9.189 10.2613 8.811 10.2613 8.523 10.0863L2.16 6.21878C2.06975 6.16953 1.99073 6.10298 1.9277 6.02318C1.86467 5.94337 1.81896 5.85196 1.79332 5.75448C1.76768 5.657 1.76265 5.55547 1.77854 5.45605C1.79443 5.35662 1.8309 5.26137 1.88575 5.17604C1.9406 5.09072 2.01269 5.0171 2.09765 4.95965C2.18262 4.9022 2.27868 4.8621 2.38005 4.84179C2.48141 4.82148 2.58595 4.82138 2.68736 4.84149C2.78876 4.86159 2.88492 4.9015 2.97 4.95878L9 8.62503L15.03 4.95878C15.1151 4.9015 15.2112 4.86159 15.3126 4.84149C15.414 4.82138 15.5186 4.82148 15.62 4.84179C15.7213 4.8621 15.8174 4.9022 15.9023 4.95965C15.9873 5.0171 16.0594 5.09072 16.1142 5.17604C16.1691 5.26137 16.2056 5.35662 16.2215 5.45605C16.2373 5.55547 16.2323 5.657 16.2067 5.75448C16.181 5.85196 16.1353 5.94337 16.0723 6.02318C16.0093 6.10298 15.9302 6.16953 15.84 6.21878Z" fill="#B3B3B3"/>
</g>
</svg>
