<svg width="193" height="172" viewBox="0 0 193 172" fill="none" xmlns="http://www.w3.org/2000/svg">
<g clip-path="url(#clip0_146_912)">
<path d="M122.391 174.766L158.399 107.067H151.022C149.661 107.067 148.913 105.515 149.775 104.482L188.153 58.5793C189.816 56.5897 193.102 57.8515 192.947 60.4207L190.25 105.309C190.095 107.879 187.774 109.794 185.168 109.501L180.025 108.923L144.297 184.855C143.367 186.832 141.351 188.098 139.132 188.098H126.749L122.391 174.767V174.766Z" fill="#E8E9EA"/>
<path d="M92.6195 127.286L118.04 182.704C119.546 185.986 122.873 188.097 126.541 188.097H139.646C141.385 188.097 142.987 187.171 143.83 185.679L144.296 184.855C142.888 184.855 141.599 184.081 140.959 182.85L107.088 117.722L92.6188 127.287L92.6195 127.286Z" fill="#E8E9EA"/>
<path d="M110.511 124.299C107.961 122.324 104.237 122.905 102.437 125.559L65.061 180.667C62.0676 185.081 57.0229 187.733 51.6203 187.733H46.3611L42.0811 175.633C42.0811 175.633 76.8281 123.347 85.784 115.438C85.784 115.438 94.7026 107.549 103.496 113.514C105.82 115.089 107.583 117.338 108.661 119.9L110.511 124.299H110.511Z" fill="#E8E9EA"/>
<path d="M-0.85022 139.821C-0.85022 139.821 7.68502 135.415 19.8087 134.221C19.8087 134.221 25.5671 136.147 37.0384 156.319C48.5105 176.492 56.1251 185.691 65.0603 180.667L64.3204 181.872C61.8822 185.844 57.5022 188.273 52.7774 188.273H47.8354C42.3942 188.273 37.2867 185.706 34.1092 181.372C25.1809 169.192 4.63445 141.711 -0.85022 139.821Z" fill="#E8E9EA"/>
<path opacity="0.72" d="M188.619 74.6129C188.605 74.6129 188.592 74.6129 188.578 74.6108C188.386 74.5888 188.249 74.4158 188.271 74.2242L188.524 72.0327C188.546 71.8412 188.721 71.7033 188.911 71.7261C189.103 71.7481 189.24 71.9211 189.218 72.1127L188.965 74.3042C188.944 74.482 188.793 74.6129 188.619 74.6129Z" fill="white"/>
<path opacity="0.72" d="M156.581 102.28C156.506 102.28 156.43 102.256 156.366 102.206C156.215 102.086 156.188 101.867 156.307 101.716L187.997 61.3049C188.367 60.8328 188.992 60.6695 189.551 60.8989C190.109 61.1277 190.424 61.6577 190.356 62.2497L189.797 67.0937C189.775 67.2852 189.601 67.4224 189.41 67.4003C189.218 67.3783 189.081 67.2053 189.103 67.0137L189.662 62.1697C189.7 61.8382 189.494 61.6301 189.286 61.5447C189.07 61.4558 188.763 61.4599 188.547 61.7349L156.856 102.146C156.788 102.233 156.685 102.279 156.581 102.279V102.28Z" fill="white"/>
<path opacity="0.72" d="M84.6883 144.644C84.6201 144.644 84.5511 144.624 84.4904 144.582C84.3318 144.473 84.2912 144.256 84.4001 144.097L100.789 120.256C101.377 119.4 102.352 118.937 103.4 119.017C104.442 119.097 105.331 119.699 105.78 120.628C105.863 120.801 105.79 121.01 105.617 121.094C105.443 121.178 105.234 121.105 105.151 120.931C104.812 120.229 104.138 119.774 103.347 119.713C102.548 119.651 101.81 120.003 101.365 120.65L84.9759 144.492C84.9083 144.591 84.7987 144.644 84.6877 144.644H84.6883Z" fill="white"/>
<path opacity="0.72" d="M80.4291 150.84C80.3608 150.84 80.2918 150.82 80.2312 150.778C80.0726 150.67 80.0319 150.452 80.1408 150.293L81.1917 148.765C81.3013 148.606 81.5185 148.566 81.6771 148.674C81.8357 148.783 81.8764 149.001 81.7675 149.16L80.7166 150.688C80.649 150.787 80.5394 150.84 80.4284 150.84H80.4291Z" fill="white"/>
<g opacity="0.8">
<path d="M188.586 151.334C194.441 145.483 194.441 135.996 188.586 130.144C182.731 124.293 173.239 124.293 167.384 130.144C161.529 135.996 161.529 145.483 167.384 151.334C173.239 157.185 182.731 157.185 188.586 151.334Z" fill="#FFAA1A"/>
<path d="M177.943 137.344C178.318 137.791 181.165 139.488 177.944 142.202C177.791 142.496 178.221 143.255 178.521 143.159C183.158 139.982 178.806 136.025 178.329 136.413C177.852 136.801 177.508 136.823 177.943 137.343L177.943 137.344Z" fill="white"/>
<path d="M179.874 145.076C179.944 145.669 180.349 146.225 180.867 146.059C181.378 145.895 187.988 140.24 180.537 133.941C180.445 133.864 180.327 133.826 180.208 133.837C180.089 133.847 179.978 133.905 179.902 133.997C179.663 134.283 179.503 134.528 179.541 134.845C186.08 140.608 179.805 144.483 179.875 145.076H179.874Z" fill="white"/>
<path d="M181.849 148.019C181.765 148.44 182.081 149.3 182.773 149.078C193.609 139.125 182.252 130.26 181.793 130.585C181.335 130.911 181.318 131.57 181.473 131.835C191.644 139.761 181.933 147.599 181.848 148.019H181.849Z" fill="white"/>
<path d="M175.343 132.319C175.256 132.283 175.165 132.304 175.099 132.372L171.349 136.208C171.308 136.25 171.255 136.275 171.196 136.278L168.078 136.433C167.771 136.449 167.524 136.691 167.503 136.998L167.113 142.623C167.09 142.947 167.328 143.232 167.652 143.268L171.211 143.664C171.262 143.669 171.309 143.691 171.347 143.727L175.114 147.325C175.181 147.389 175.262 147.407 175.347 147.37C175.433 147.334 175.469 147.249 175.469 147.156V132.534C175.469 132.439 175.431 132.354 175.344 132.319L175.343 132.319Z" fill="white"/>
</g>
<g opacity="0.8">
<path d="M167.835 81.5176H145.918C144.242 81.5176 142.883 80.1596 142.883 78.4842V56.5218C142.883 54.9414 144.096 53.6262 145.673 53.4988L169.023 51.6101C170.863 51.4612 172.408 52.9739 172.298 54.8156L170.863 78.6672C170.767 80.2691 169.439 81.5188 167.834 81.5188L167.835 81.5176Z" fill="#0057B3"/>
<path d="M145.524 75.7717H166.715C167.375 75.7717 167.785 75.0556 167.45 74.4873L159.061 60.2337C158.711 59.6393 157.836 59.6844 157.55 60.3119L153.499 69.1828C153.258 69.7094 152.574 69.8485 152.146 69.4574L150.508 67.9563C150.127 67.6075 149.526 67.6742 149.231 68.0983L144.823 74.4334C144.43 74.9988 144.835 75.7722 145.524 75.7722V75.7717Z" fill="white"/>
<path d="M166.056 62.0725C167.301 61.1008 167.523 59.3041 166.55 58.0595C165.578 56.8149 163.78 56.5936 162.535 57.5653C161.29 58.537 161.068 60.3337 162.04 61.5783C163.013 62.823 164.811 63.0442 166.056 62.0725Z" fill="white"/>
</g>
<g opacity="0.8">
<path d="M186.3 36.213L160.033 35.7809C158.148 35.7499 156.671 34.1511 156.79 32.2704L158.518 4.91484C158.617 3.34015 159.817 2.05558 161.382 1.84884L184.273 0.0212312C186.465 -0.268898 191.085 2.4732 190.738 4.65503L189.619 33.4282C189.361 35.0525 187.946 36.2399 186.301 36.2123L186.3 36.213Z" fill="#FFAA1A"/>
<g opacity="0.9">
<path d="M174.529 28.6986C168.832 28.6986 164.198 24.0668 164.198 18.3745C164.198 12.6822 168.833 8.05045 174.529 8.05045C180.224 8.05045 184.859 12.6822 184.859 18.3745C184.859 24.0668 180.224 28.6986 174.529 28.6986ZM174.529 9.7802C169.787 9.7802 165.929 13.6353 165.929 18.3745C165.929 23.1137 169.786 26.9688 174.529 26.9688C179.271 26.9688 183.128 23.1137 183.128 18.3745C183.128 13.6353 179.271 9.7802 174.529 9.7802Z" fill="white"/>
<path fill-rule="evenodd" clip-rule="evenodd" d="M171.292 22.3502V14.9274C171.292 14.1342 172.156 13.6428 172.838 14.0474L179.096 17.7584C179.764 18.1547 179.764 19.1222 179.096 19.5185L172.838 23.2295C172.155 23.634 171.292 23.1427 171.292 22.3495V22.3502Z" fill="white"/>
</g>
</g>
<path d="M71.5092 142.34C71.5092 142.34 50.6289 272.785 50.9718 273.501C50.9718 273.501 45.2053 276.12 38.9178 273.835C38.9178 273.835 40.8068 204.102 45.231 177.365C45.231 177.365 9.59526 239.692 -1.72166 270.748C-1.72166 270.748 -7.62353 270.044 -12.5106 266.831C-12.5106 266.831 25.8593 154.645 36.0963 139.703L71.5092 142.338V142.34Z" fill="#0057B3"/>
<path d="M46.0641 176.689C45.9527 176.689 45.8396 176.659 45.7384 176.594C45.4487 176.413 45.3613 176.032 45.543 175.745L53.3459 163.288C53.4367 163.144 53.5807 163.043 53.747 163.011L59.4894 161.856C59.8254 161.789 60.1494 162.007 60.2163 162.339C60.2831 162.673 60.0671 162.999 59.7329 163.066L54.251 164.167L46.5886 176.399C46.4721 176.586 46.2698 176.689 46.0658 176.689H46.0641Z" fill="#014995"/>
<path d="M167.328 14.6067C167.328 14.6067 153.237 17.7127 144.668 21.6666C142.966 22.4513 141.608 23.8252 140.835 25.5178C138.272 31.1284 130.603 45.2003 115.733 51.9142C117.874 54.7546 121.323 60.665 122.824 70.5961C131.757 63.9525 139.467 52.8564 143.17 34.6592C143.17 34.6592 145.99 36.1908 149.505 34.4845C151.364 33.5834 153.508 32.3037 155.119 31.298C156.724 30.2958 157.919 28.7368 158.383 26.9175C158.997 24.5139 158.635 22.4016 158.635 20.1351L165.877 17.8926C165.877 17.8926 168.054 17.072 167.328 14.6084V14.6067Z" fill="url(#paint0_linear_146_912)"/>
<path d="M122.824 70.5979C121.323 60.665 117.874 54.7563 115.733 51.9159C106.495 56.0874 94.4773 57.4203 79.1749 52.1215C77.7642 51.6332 76.2934 51.3471 74.8004 51.2598C66.653 50.7818 39.8091 49.9115 17.5953 57.2455C12.9207 58.7891 9.13413 62.2428 7.1817 66.7193C1.17183 80.5016 -8.55606 111.888 18.4523 127.733C20.5265 122.585 22.9229 118.446 24.9696 115.406C20.6207 108.073 19.3317 98.0598 27.0506 85.0193C32.6782 100.206 35.318 122.368 35.87 132.174C36.0517 135.403 35.4843 138.626 34.2175 141.607L34.0787 141.932C33.8078 142.569 34.1815 143.303 34.8638 143.457C50.0684 146.869 65.8816 145.943 70.6058 145.552C71.4492 145.482 72.1503 144.879 72.344 144.065C79.7372 112.93 79.7543 91.692 77.9442 78.266C84.8608 79.8112 106.008 83.1074 122.826 70.5979H122.824Z" fill="#434343"/>
<path d="M77.9732 79.102C77.6681 79.102 77.4041 78.8759 77.3629 78.5675C75.6265 65.4584 72.0902 59.7382 72.0559 59.6816C71.8742 59.3938 71.9599 59.0135 72.2479 58.8319C72.5341 58.652 72.9147 58.736 73.0981 59.0221C73.2489 59.2585 76.8093 64.9873 78.5869 78.4065C78.6314 78.744 78.3949 79.054 78.0572 79.0986C78.0298 79.102 78.0023 79.1037 77.9749 79.1037L77.9732 79.102Z" fill="#373737"/>
<path d="M40.452 33.1208C40.452 33.1208 38.9144 49.3736 37.5602 54.1824C37.3545 54.9122 37.6716 55.6814 38.335 56.06C40.6337 57.3723 46.1464 59.5138 53.687 55.8202C54.9092 55.2223 55.6429 53.9494 55.5863 52.6029L54.9212 36.8967L40.452 33.1226V33.1208Z" fill="url(#paint1_linear_146_912)"/>
<path d="M55.2521 12.3282C55.2521 12.3282 60.1717 23.6231 60.5026 29.5506C60.8334 35.4781 62.1104 39.3259 55.2521 40.5199C48.3937 41.714 42.6152 38.2997 39.4852 32.3944C39.4852 32.3944 34.5809 23.2958 35.6814 19.5697C36.7819 15.8436 55.2521 12.3299 55.2521 12.3299V12.3282Z" fill="url(#paint2_linear_146_912)"/>
<path d="M41.8302 28.1475L42.221 27.9762C42.7181 27.7569 42.9307 27.1659 42.6804 26.6845C41.7136 24.8172 39.828 20.5377 42.2639 19.5389C45.4025 18.2523 57.8371 15.7186 60.5197 11.3089C63.0978 7.07055 60.8128 1.60044 57.3811 0.0448887C57.1514 -0.0596139 56.8806 0.0226269 56.7623 0.247051L56.476 0.788393C56.2806 1.15844 55.7321 1.1019 55.6155 0.701021C55.5041 0.313847 54.9898 0.24019 54.7756 0.581108C53.951 1.90024 51.7243 4.03825 45.771 5.13639C37.3099 6.69708 31.7166 10.12 31.576 15.9618C31.5675 16.3336 31.1715 16.5392 30.8544 16.3456C30.2304 15.9653 29.2293 15.7871 27.894 16.9092C25.5696 18.8622 26.521 23.928 31.6155 28.0944C31.8572 28.2931 31.8554 28.67 31.5932 28.8396C30.6692 29.441 29.2928 30.8697 32.86 32.7765C36.5488 34.7483 39.3052 34.5856 40.3663 34.4108C40.6303 34.368 40.8 34.1127 40.7434 33.8506L39.6103 28.7146C39.5469 28.4233 39.768 28.1493 40.0663 28.1493H41.8302V28.1475Z" fill="#434343"/>
<path d="M42.0426 29.2303C42.0426 29.2303 40.1656 22.0162 36.9292 24.0377C33.6929 26.0609 38.6091 32.1221 41.2112 32.391L42.0426 29.2285V29.2303Z" fill="url(#paint3_linear_146_912)"/>
<path d="M41.8045 135.544L63.5504 135.813L55.9395 128.653C54.0471 126.873 51.1604 126.586 48.9765 128.001C47.6978 128.83 46.311 129.954 45.1094 131.444C45.1094 131.444 31.5452 126.49 24.9679 115.406C22.9195 118.446 20.5248 122.585 18.4507 127.733C24.3457 131.192 31.9874 133.911 41.8028 135.545L41.8045 135.544Z" fill="url(#paint4_linear_146_912)"/>
<path d="M44.1476 138.346C44.1905 138.348 44.2316 138.35 44.2744 138.35L99.474 138.29C100.838 138.29 101.944 137.193 101.942 135.845C101.942 134.495 100.83 133.38 99.4689 133.404L44.2693 133.464C42.9048 133.464 41.7992 134.56 41.8009 135.908C41.8009 137.216 42.8414 138.283 44.1476 138.346Z" fill="url(#paint5_linear_146_912)"/>
<path d="M149.094 88.7864H103.123C99.7328 88.7864 96.6456 90.7223 95.1989 93.7546L73.9467 138.316H131.075C133.26 138.316 135.223 136.995 136.027 134.985L152.507 93.7512C153.458 91.3681 151.684 88.7864 149.092 88.7864H149.094Z" fill="url(#paint6_linear_146_912)"/>
<path d="M123.588 113.851C124.596 110.794 123.875 107.809 121.976 107.184C120.078 106.559 117.723 108.53 116.714 111.587C115.706 114.644 116.428 117.629 118.326 118.255C120.224 118.88 122.58 116.908 123.588 113.851Z" fill="#2892E1"/>
<rect y="170" width="193" height="2" fill="#FFAA1A"/>
</g>
<defs>
<linearGradient id="paint0_linear_146_912" x1="143.374" y1="31.8565" x2="98.352" y2="90.4652" gradientUnits="userSpaceOnUse">
<stop stop-color="#FEBBBA"/>
<stop offset="1" stop-color="#FF928E"/>
</linearGradient>
<linearGradient id="paint1_linear_146_912" x1="42.9461" y1="69.719" x2="47.8704" y2="43.8561" gradientUnits="userSpaceOnUse">
<stop stop-color="#FEBBBA"/>
<stop offset="1" stop-color="#FFB6B4"/>
</linearGradient>
<linearGradient id="paint2_linear_146_912" x1="56.284" y1="22.2697" x2="28.1719" y2="43.7909" gradientUnits="userSpaceOnUse">
<stop stop-color="#FEBBBA"/>
<stop offset="1" stop-color="#FFB1AE"/>
</linearGradient>
<linearGradient id="paint3_linear_146_912" x1="52.7956" y1="17.7127" x2="24.6835" y2="39.2357" gradientUnits="userSpaceOnUse">
<stop stop-color="#FEBBBA"/>
<stop offset="1" stop-color="#FFACA9"/>
</linearGradient>
<linearGradient id="paint4_linear_146_912" x1="45.3957" y1="118.196" x2="74.0123" y2="29.6915" gradientUnits="userSpaceOnUse">
<stop stop-color="#FEBBBA"/>
<stop offset="1" stop-color="#FF928E"/>
</linearGradient>
<linearGradient id="paint5_linear_146_912" x1="41.8009" y1="135.877" x2="101.942" y2="135.877" gradientUnits="userSpaceOnUse">
<stop stop-color="#FF9C00"/>
<stop offset="1" stop-color="#FFAA1A"/>
</linearGradient>
<linearGradient id="paint6_linear_146_912" x1="73.9467" y1="113.551" x2="152.767" y2="113.551" gradientUnits="userSpaceOnUse">
<stop stop-color="#FF9C00"/>
<stop offset="1" stop-color="#FFAA1A"/>
</linearGradient>
<clipPath id="clip0_146_912">
<rect width="193" height="172" fill="white"/>
</clipPath>
</defs>
</svg>
