<svg width="194" height="172" viewBox="0 0 194 172" fill="none" xmlns="http://www.w3.org/2000/svg">
<g clip-path="url(#clip0_305_378)">
<g opacity="0.5">
<path d="M130.947 1.96453C123.104 1.90274 115.193 3.14717 108.194 6.05311C91.9022 12.8178 78.075 30.7174 83.4863 49.0008C85.2442 54.94 84.3205 61.4927 90.2332 64.0736C93.4323 65.4701 102.145 66.3018 105.457 65.2007C114.261 62.2756 120.048 54.2696 115.26 45.3917C113.727 42.5488 111.742 39.9512 110.418 37.0051C109.094 34.0584 108.49 30.5611 109.84 27.6261C112.49 21.8649 121.293 20.0335 127.001 20.2065C133.739 20.4104 139.844 23.7452 143.47 29.4668C147.989 36.5973 149.134 45.27 148.473 53.5466C147.765 62.4029 144.033 69.1663 138.441 75.96C133.626 81.8096 128.324 87.4237 125.124 94.2922C122.186 100.598 121.226 107.584 121.093 114.482C121.068 115.82 114.423 128.42 114.452 132.269C114.456 132.813 121.988 134.614 122.531 134.621C125.367 134.652 133.399 134.742 136.355 134.775C136.963 134.782 137.464 134.296 137.471 133.687C137.681 114.959 143.438 97.1042 158.01 84.5264C163.312 79.9497 169.022 76.2226 173.145 70.4459C179.022 62.2126 181.921 54.1095 181.084 43.9483C180.319 34.6676 177.266 25.3826 171.221 18.1817C164.724 10.4426 155.215 5.60946 145.332 3.52408C140.722 2.55152 135.848 2.00222 130.946 1.96391L130.947 1.96453Z" fill="#E8E9EA"/>
<path d="M145.41 155.769C145.41 164.381 140.639 172 132.034 172C130.175 172 123.852 172.017 122.199 171.42C116.2 169.251 116.178 164.638 116.178 157.887C116.178 149.275 119.084 140.806 127.69 140.806C136.296 140.806 145.41 147.158 145.41 155.769H145.41Z" fill="#E8E9EA"/>
<path d="M123.494 0.00218746C115.652 -0.0596016 107.741 1.18483 100.742 4.09077C84.4498 10.8554 70.6226 28.7551 76.0339 47.0385C77.7918 52.9777 81.8559 60.4541 87.7686 63.0351C90.9676 64.4315 94.6921 64.3388 98.0047 63.2384C106.809 60.3133 112.596 52.3072 107.807 43.4294C106.274 40.5865 104.289 37.9889 102.965 35.0428C101.642 32.0967 101.038 28.5988 102.387 25.6638C105.038 19.9026 113.841 18.0712 119.549 18.2442C126.287 18.4481 132.392 21.7828 136.018 27.5045C140.537 34.635 141.681 43.3077 141.02 51.5843C140.313 60.4405 136.581 67.204 130.988 73.9977C126.174 79.8472 120.871 85.4614 117.672 92.3299C114.734 98.6354 113.774 105.622 113.641 112.52C113.615 113.857 114.065 127.819 114.094 131.668C114.098 132.212 114.535 132.652 115.079 132.658C117.914 132.689 125.946 132.779 128.903 132.812C129.511 132.819 130.012 132.333 130.018 131.724C130.229 112.996 135.985 95.1413 150.557 82.5635C155.859 77.9868 161.57 74.2597 165.693 68.483C171.569 60.2496 174.468 52.1466 173.631 41.9854C172.867 32.7047 169.814 23.4196 163.769 16.2187C157.271 8.47965 147.762 3.64651 137.879 1.56113C133.271 0.589801 128.396 0.0404967 123.494 0.00218746Z" fill="#E8E9EA"/>
<path d="M124.308 171.518C132.914 171.518 139.89 164.537 139.89 155.925C139.89 147.313 132.914 140.332 124.308 140.332C115.702 140.332 108.726 147.313 108.726 155.925C108.726 164.537 115.702 171.518 124.308 171.518Z" fill="#E8E9EA"/>
<path opacity="0.63" d="M81.1917 45.2472C81.0997 45.2472 81.017 45.1835 80.9966 45.0902C79.9043 40.1564 79.7444 32.4297 85.1817 23.6395C90.4887 15.0608 97.9333 9.31993 107.308 6.57773C117.33 3.64646 129.228 4.27424 142.673 8.44314C142.779 8.47589 142.838 8.58773 142.805 8.69339C142.773 8.79905 142.66 8.85837 142.555 8.82562C116.725 0.815903 96.4706 6.15201 85.5219 23.8509C80.155 32.5261 80.3112 40.1428 81.3875 45.0044C81.4115 45.1125 81.343 45.2194 81.2356 45.2429C81.2214 45.2459 81.2065 45.2478 81.1923 45.2478L81.1917 45.2472Z" fill="white"/>
<path opacity="0.63" d="M84.4694 53.1856C84.4077 53.1856 84.3472 53.1572 84.3076 53.1035C84.2601 53.0386 83.1376 51.4858 82.0928 48.7517C82.0533 48.6485 82.1052 48.5329 82.2083 48.4934C82.3108 48.4538 82.4269 48.5051 82.4664 48.6089C83.4901 51.2893 84.6188 52.852 84.63 52.8674C84.6948 52.9564 84.6756 53.0818 84.5861 53.1467C84.5503 53.1727 84.5089 53.185 84.4682 53.185L84.4694 53.1856Z" fill="white"/>
<path opacity="0.63" d="M129.521 145.818C129.491 145.818 129.46 145.811 129.431 145.796C127.834 144.986 126.11 144.575 124.307 144.575C124.197 144.575 124.107 144.485 124.107 144.375C124.107 144.264 124.197 144.174 124.307 144.174C126.174 144.174 127.958 144.6 129.612 145.439C129.71 145.489 129.75 145.61 129.7 145.708C129.664 145.778 129.594 145.817 129.521 145.817V145.818Z" fill="white"/>
<path opacity="0.63" d="M117.854 165.702C117.816 165.702 117.777 165.691 117.743 165.667C114.501 163.476 112.566 159.834 112.566 155.924C112.566 151.59 114.938 147.622 118.756 145.568C118.853 145.515 118.974 145.552 119.027 145.649C119.079 145.747 119.043 145.868 118.945 145.921C115.257 147.905 112.965 151.738 112.965 155.924C112.965 159.701 114.835 163.219 117.966 165.336C118.058 165.398 118.082 165.522 118.02 165.614C117.982 165.672 117.918 165.702 117.854 165.702L117.854 165.702Z" fill="white"/>
</g>
<path d="M63.5504 147.612C63.1928 149.436 61.6307 238.599 71.1555 278.557C71.311 279.208 70.9807 279.881 70.36 280.134C68.899 280.731 66.0363 281.596 62.6042 281.712C61.5409 281.747 60.5883 281.057 60.2884 280.035C57.5652 270.765 44.5201 224.316 42.8185 179.945C40.9164 130.364 42.8185 178.256 42.8185 178.256L43.9331 147.609L63.5504 147.612Z" fill="#2994E3"/>
<path d="M25.6043 150.539C17.8148 197.582 27.2946 266.81 30.4909 280.36C30.6866 281.19 31.3554 281.825 32.1957 281.965C33.6231 282.201 35.9726 282.395 38.2885 281.721C39.0871 281.49 39.6468 280.769 39.6789 279.938C40.1071 268.983 39.3357 201.734 46.5944 175.157C46.9616 173.81 47.7844 172.635 48.9214 171.827L63.0089 161.804L64.0883 145.604L25.6043 150.539Z" fill="#2994E3"/>
<path d="M75.4871 61.2105C52.1443 60.8253 26.3862 67.3445 26.3862 67.3445C19.4274 107.974 25.1689 154.838 25.1689 154.838C43.2402 159.58 63.6272 151.938 63.6272 151.938C66.6311 134.954 80.6448 87.1619 80.6448 87.1619C92.0508 85.7447 101.446 82.4531 109.184 78.099C103.282 71.2524 100.499 62.541 99.2918 57.3925C91.0388 59.9587 82.6864 61.3309 75.4871 61.2105Z" fill="#0057B3"/>
<path d="M144.439 26.8011C142.146 24.0295 139.243 25.3407 139.243 25.3407C135.808 39.8619 117.796 51.6355 99.2917 57.3907C100.501 62.5408 103.282 71.2523 109.184 78.0972C139.894 60.8172 144.438 26.8011 144.438 26.8011H144.439Z" fill="url(#paint0_linear_305_378)"/>
<path d="M143.883 27.5059C144.124 28.2699 141.344 29.4318 139.709 26.3103C139.651 24.8145 138.741 18.4045 139.635 17.1848C144.393 10.6929 153.618 2.55444 153.618 2.55444C155.177 4.09355 153.892 5.60698 153.892 5.60698L149.416 10.2724C150.353 11.9656 151.495 13.394 152.029 15.4418C152.434 16.9922 152.186 18.65 151.403 20.0608C150.617 21.4763 149.546 23.3187 148.532 24.7583C146.614 27.4851 143.88 27.5059 143.88 27.5059H143.883Z" fill="url(#paint1_linear_305_378)"/>
<path d="M147.461 13.2995L143.383 16.7597L142.103 20.2038L145.739 24.2401C145.739 24.2401 146.961 17.4049 147.87 15.9267C148.78 14.447 148.308 13.7328 147.461 13.2995Z" fill="url(#paint2_linear_305_378)"/>
<path d="M35.3416 89.9624L26.3878 67.3429C26.3878 67.3429 4.58296 82.169 0.998535 100.966C5.11861 101.269 12.6146 102.341 19.9535 106.05C21.5653 97.1749 35.3416 89.9624 35.3416 89.9624Z" fill="#0057B3"/>
<path d="M54.3961 111.247C54.3961 111.247 29.9162 125.092 21.6552 113.271C19.9407 110.815 19.5302 108.376 19.952 106.05C12.6131 102.343 5.11712 101.269 0.997038 100.966C-0.0839018 106.633 0.487041 112.659 3.81486 118.751C18.2841 145.237 57.6341 117.288 57.6341 117.288L54.3945 111.247H54.3961Z" fill="url(#paint3_linear_305_378)"/>
<path d="M51.4532 128.763L64.8142 82.0712C64.9649 81.5416 65.4172 81.1548 65.9657 81.0906C68.3857 80.8082 75.4006 80.0153 83.4997 79.3284C93.2554 78.5019 104.583 77.8343 111.352 78.4024C112.315 78.4827 112.897 79.5018 112.469 80.3684C108.619 88.1618 92.7839 119.865 84.8548 130.251C84.5918 130.594 84.1861 130.796 83.7531 130.791L52.7538 130.503C51.8525 130.494 51.2062 129.628 51.4548 128.76L51.4532 128.763Z" fill="#FFAA1A"/>
<path d="M84.8853 75.281L94.572 73.6664C95.0885 73.5797 95.5102 74.0741 95.3467 74.57L94.3876 77.4781C94.3042 77.7316 94.0829 77.9146 93.8199 77.9499L84.4988 79.1953C84.016 79.2595 83.6183 78.8214 83.7306 78.3479L84.324 75.809C84.3881 75.5361 84.6094 75.3275 84.8869 75.281H84.8853Z" fill="white"/>
<path d="M77.6315 83.4884L78.4302 79.3285C78.5104 78.9112 78.8552 78.5966 79.277 78.5533L98.8414 76.5664C99.5005 76.499 100.027 77.1041 99.8726 77.7476L98.6281 82.9315C98.5286 83.3456 98.1678 83.6457 97.7428 83.6665L78.6243 84.6295C78.002 84.6616 77.5145 84.0999 77.6331 83.4884H77.6315Z" fill="white"/>
<path d="M54.6815 117.482C54.6815 117.482 52.8212 109.823 53.5717 107.106C54.3223 104.389 55.7769 100.895 60.6251 101.672C65.4733 102.449 71.1923 104.492 71.1923 104.492C71.1923 104.492 70.9036 108.031 67.2182 106.89L69.5035 108.658C69.5035 108.658 69.1764 111.492 66.0651 109.977L68.1901 112.324C68.1901 112.324 66.8541 114.651 64.5639 113.158C62.2738 111.666 61.1768 118.403 54.6815 117.48V117.482Z" fill="url(#paint4_linear_305_378)"/>
<path d="M51.8429 42.2454L44.4158 63.7399C44.2924 64.0962 44.4383 64.491 44.7687 64.6724C46.7926 65.7926 54.0882 69.0313 62.8784 63.4526C63.7942 62.8716 64.418 61.9247 64.556 60.8478L66.9616 42.2438H51.8429V42.2454Z" fill="url(#paint5_linear_305_378)"/>
<path d="M68.0039 22.3397C68.0039 22.3397 76.1607 37.7035 75.115 43.9097C74.0694 50.1159 63.9608 49.6697 55.1337 44.6303L48.9656 28.0404L68.0039 22.3397Z" fill="url(#paint6_linear_305_378)"/>
<path d="M55.5236 36.4838C55.8828 36.3249 56.0143 35.8851 55.7994 35.5577C55.1451 34.5595 53.9214 32.5212 53.5301 30.7366C53.5301 30.7366 52.0642 29.7961 57.262 28.5523C62.4599 27.3069 70.2125 25.3746 71.8419 20.9467C73.4312 16.6295 69.2566 5.77387 62.5978 14.4243C62.3444 14.7533 61.8488 14.7613 61.5954 14.4307C60.5033 13.0088 57.6341 10.0574 53.6488 11.8468C49.92 13.5208 49.4998 16.2555 49.5511 17.6341C49.5656 18.0402 49.2031 18.3547 48.8054 18.2793C46.921 17.9198 42.3967 17.6101 40.2846 22.2547C38.5445 26.0808 39.6751 28.2458 40.7047 29.305C41.0383 29.6485 40.8924 30.2134 40.4353 30.353C39.1956 30.7334 37.5966 31.7846 37.757 34.6895C37.9783 38.705 42.4657 38.3519 43.7423 38.1689C43.9524 38.1384 44.1625 38.2106 44.3036 38.3679C45.399 39.5812 50.3338 44.7314 55.6743 45.3525C56.1362 45.4054 56.4954 44.9497 56.3431 44.5083L54.0321 37.7837C53.9246 37.4708 54.0738 37.1289 54.3753 36.9957L55.522 36.487L55.5236 36.4838Z" fill="#434343"/>
<path d="M56.4536 37.437C56.4536 37.437 50.6464 33.4504 50.2214 36.8079C49.7964 40.1653 55.4513 41.6707 58.2515 40.4189L56.4536 37.437Z" fill="url(#paint7_linear_305_378)"/>
<path d="M87.058 29.1176L79.5706 36.7819L88.552 34.3812L87.058 29.1176Z" fill="#FFAA1A"/>
<path d="M131.61 32.2902L89.0657 34.3566C87.973 34.4096 87.0581 33.5372 87.0581 32.4426V14.9275C87.0581 13.0239 88.569 11.4643 90.4708 11.4054L128.815 10.2178C131.67 10.2178 133.985 12.5344 133.985 15.3918V29.7966C133.985 31.1283 132.94 32.2263 131.61 32.2907V32.2902Z" fill="#FFAA1A"/>
<path opacity="0.85" d="M90.3381 33.653C89.6601 33.653 89.0209 33.3974 88.5264 32.9254C88.0007 32.424 87.7114 31.7472 87.7114 31.0202V15.2339C87.7114 13.3734 89.2021 11.8713 91.105 11.8139L128.23 10.692C131.044 10.692 133.331 12.9266 133.331 15.6725V29.2826C133.331 30.5925 132.283 31.668 130.944 31.7314L90.4663 33.6498C90.4232 33.6519 90.3806 33.653 90.3381 33.653ZM128.233 10.8766L91.1104 11.9986C89.308 12.0532 87.8959 13.4745 87.8959 15.2345V31.0207C87.8959 31.6964 88.165 32.3257 88.6536 32.7922C89.1421 33.2587 89.7824 33.4985 90.4576 33.4657L130.936 31.5473C132.175 31.4888 133.147 30.4941 133.147 29.2831V15.6731C133.147 13.0288 130.943 10.8771 128.233 10.8771V10.8766Z" fill="white"/>
<path d="M128.109 14.0699L94.0902 15.3443C93.7561 15.3568 93.493 15.5786 93.5045 15.8381L93.5171 16.1374C93.528 16.3941 93.8036 16.5919 94.1339 16.5798L128.154 15.3366C128.489 15.3246 128.752 15.1028 128.741 14.8428L128.727 14.5129C128.716 14.2556 128.441 14.0584 128.109 14.071V14.0699Z" fill="#EEEEEE"/>
<path d="M125.064 22.6885L91.0447 23.9563C90.7107 23.9689 90.4481 24.1977 90.4596 24.4665L90.4727 24.7762C90.4842 25.0422 90.7598 25.247 91.0906 25.235L125.111 23.9994C125.446 23.9874 125.709 23.758 125.697 23.4887L125.682 23.1468C125.671 22.8802 125.395 22.6754 125.064 22.6879L125.064 22.6885Z" fill="#EEEEEE"/>
<path d="M129.039 26.2936L91.1148 27.7264C90.7425 27.7406 90.4488 27.9733 90.4603 28.2448L90.4739 28.5578C90.4854 28.8265 90.7916 29.0319 91.1606 29.0188L129.086 27.6182C129.459 27.6046 129.753 27.3719 129.742 27.0998L129.727 26.7546C129.716 26.4859 129.409 26.2799 129.04 26.2941L129.039 26.2936Z" fill="#EEEEEE"/>
<path d="M109.457 19.151L90.9149 19.6918C90.7326 19.6973 90.5967 19.9474 90.6114 20.249L90.6284 20.5969C90.6431 20.8957 90.8003 21.1322 90.9804 21.1273L109.524 20.6226C109.706 20.6177 109.843 20.3675 109.828 20.0654L109.808 19.6814C109.794 19.3826 109.636 19.1456 109.456 19.151H109.457Z" fill="#EEEEEE"/>
<path d="M129.888 18.5098L112.363 19.0123C112.191 19.0172 112.062 19.2669 112.078 19.5689L112.095 19.9169C112.11 20.2157 112.259 20.4527 112.43 20.4484L129.958 19.9813C130.13 19.977 130.258 19.7268 130.243 19.4247L130.224 19.0407C130.209 18.7419 130.06 18.5043 129.889 18.5092L129.888 18.5098Z" fill="#EEEEEE"/>
<rect x="0.5" y="170" width="193" height="2" fill="#0057B3"/>
</g>
<defs>
<linearGradient id="paint0_linear_305_378" x1="137.477" y1="-1.0745" x2="121.866" y2="43.4997" gradientUnits="userSpaceOnUse">
<stop stop-color="#FEBBBA"/>
<stop offset="1" stop-color="#FFBEBC"/>
</linearGradient>
<linearGradient id="paint1_linear_305_378" x1="150.805" y1="3.59282" x2="135.193" y2="48.167" gradientUnits="userSpaceOnUse">
<stop stop-color="#FEBBBA"/>
<stop offset="1" stop-color="#FFB0AD"/>
</linearGradient>
<linearGradient id="paint2_linear_305_378" x1="138.827" y1="32.0753" x2="150.586" y2="8.37427" gradientUnits="userSpaceOnUse">
<stop stop-color="#FEBBBA"/>
<stop offset="1" stop-color="#FF928E"/>
</linearGradient>
<linearGradient id="paint3_linear_305_378" x1="0.49987" y1="115.561" x2="57.6357" y2="115.561" gradientUnits="userSpaceOnUse">
<stop stop-color="#FEBBBA"/>
<stop offset="1" stop-color="#FFBFBD"/>
</linearGradient>
<linearGradient id="paint4_linear_305_378" x1="53.3937" y1="109.567" x2="71.1923" y2="109.567" gradientUnits="userSpaceOnUse">
<stop stop-color="#FEBBBA"/>
<stop offset="1" stop-color="#FFBFBD"/>
</linearGradient>
<linearGradient id="paint5_linear_305_378" x1="44.3725" y1="54.4363" x2="66.9616" y2="54.4363" gradientUnits="userSpaceOnUse">
<stop stop-color="#FEBBBA"/>
<stop offset="1" stop-color="#FEB4B1"/>
</linearGradient>
<linearGradient id="paint6_linear_305_378" x1="72.3217" y1="40.0829" x2="47.4758" y2="24.937" gradientUnits="userSpaceOnUse">
<stop stop-color="#FEBBBA"/>
<stop offset="1" stop-color="#FFC2BF"/>
</linearGradient>
<linearGradient id="paint7_linear_305_378" x1="65.7981" y1="45.7353" x2="43.443" y2="32.1092" gradientUnits="userSpaceOnUse">
<stop stop-color="#FEBBBA"/>
<stop offset="1" stop-color="#FFAEAB"/>
</linearGradient>
<clipPath id="clip0_305_378">
<rect width="193" height="172" fill="white" transform="translate(0.5)"/>
</clipPath>
</defs>
</svg>
