<svg width="15" height="19" viewBox="0 0 15 19" fill="none" xmlns="http://www.w3.org/2000/svg">
<g id="User">
<path id="Vector" d="M7.38658 9.17065C8.57639 9.17065 9.60667 8.74342 10.4485 7.9005C11.2903 7.05772 11.717 6.02652 11.717 4.8352C11.717 3.64429 11.2903 2.61296 10.4483 1.7699C9.60639 0.927258 8.57625 0.500031 7.38658 0.500031C6.19664 0.500031 5.16664 0.927258 4.32483 1.77004C3.48302 2.61282 3.05615 3.64416 3.05615 4.8352C3.05615 6.02652 3.48302 7.05786 4.32497 7.90064C5.16691 8.74328 6.19705 9.17065 7.38658 9.17065Z" fill="#B3B3B3"/>
<path id="Vector_2" d="M14.9636 14.341C14.9394 13.9903 14.8903 13.6077 14.818 13.2037C14.745 12.7966 14.651 12.4119 14.5386 12.0602C14.4224 11.6967 14.2644 11.3377 14.069 10.9937C13.8663 10.6366 13.6282 10.3257 13.361 10.0699C13.0816 9.80221 12.7395 9.58702 12.3439 9.43005C11.9496 9.27391 11.5127 9.19481 11.0454 9.19481C10.8619 9.19481 10.6844 9.2702 10.3416 9.49363C10.1306 9.63137 9.88386 9.79068 9.60843 9.96687C9.37291 10.1171 9.05385 10.2579 8.65977 10.3853C8.27528 10.5099 7.8849 10.573 7.49959 10.573C7.11428 10.573 6.72403 10.5099 6.33914 10.3853C5.94546 10.258 5.62641 10.1172 5.39116 9.967C5.11833 9.79246 4.87143 9.63316 4.65731 9.4935C4.31493 9.27006 4.1373 9.19467 3.95376 9.19467C3.48629 9.19467 3.04955 9.27391 2.65546 9.43019C2.26014 9.58688 1.9179 9.80207 1.63821 10.07C1.37114 10.326 1.13288 10.6368 0.930419 10.9937C0.735227 11.3377 0.577208 11.6965 0.460888 12.0603C0.348547 12.412 0.254586 12.7966 0.181612 13.2037C0.109324 13.6072 0.0602173 13.9899 0.0359383 14.3415C0.0120709 14.6859 0 15.0433 0 15.4044C0 16.344 0.298343 17.1046 0.886662 17.6656C1.46771 18.2192 2.23654 18.5 3.17149 18.5H11.8285C12.7635 18.5 13.532 18.2193 14.1132 17.6656C14.7017 17.105 15 16.3442 15 15.4042C14.9999 15.0416 14.9877 14.6838 14.9636 14.341Z" fill="#B3B3B3"/>
</g>
</svg>
