<svg width="18" height="19" viewBox="0 0 18 19" fill="none" xmlns="http://www.w3.org/2000/svg">
<g id="button icon">
<path id="Vector" d="M1.22404 8.07895L0.5625 7.4173V15.6474C0.562906 16.0029 0.70432 16.3437 0.95572 16.5951C1.20712 16.8465 1.54797 16.9879 1.90351 16.9883H16.0965C16.452 16.9879 16.7929 16.8465 17.0443 16.5951C17.2957 16.3437 17.4371 16.0029 17.4375 15.6474V6.94354L16.7759 7.60527C16.7342 7.64691 16.6908 7.68618 16.6465 7.72403V14.9955C16.6462 15.29 16.529 15.5724 16.3207 15.7807C16.1124 15.989 15.83 16.1061 15.5354 16.1064H2.46455C2.16996 16.1061 1.88754 15.989 1.67923 15.7807C1.47093 15.5724 1.35376 15.29 1.35343 14.9955V8.19771C1.30913 8.15967 1.26569 8.1204 1.22404 8.07895Z" fill="#B3B3B3"/>
<path id="Vector_2" d="M2.76901 9.8675C2.4037 9.86827 1.42083 9.69339 1.0993 9.21971V14.718C1.09952 14.9106 0.96256 15.5865 1.0993 15.7227C1.23603 15.8589 2.17483 16.605 2.3682 16.6053H15.6314C15.8247 16.605 16.442 16.7415 16.5787 16.6053C16.7155 16.4691 17.0522 15.1888 17.0524 14.9961L17.0524 9.02634C16.5787 9.50002 15.5959 9.86826 15.2306 9.8675C14.8653 9.86673 11.6466 9.8675 11.6466 9.8675V10.7033C11.6466 10.754 11.6264 10.8026 11.5904 10.8384C11.5544 10.8743 11.5056 10.8944 11.4547 10.8944H6.54486C6.49396 10.8944 6.44513 10.8743 6.40914 10.8384C6.37314 10.8026 6.35292 10.754 6.35292 10.7033V9.8675H2.76901Z" fill="#B3B3B3"/>
<path id="Vector_3" d="M9.17578 8.83203H11.25V10.5195H9.17578V8.83203Z" fill="#B3B3B3"/>
<path id="Vector_4" d="M16.2766 4.23332H11.9459V2.82827C11.9457 2.60247 11.8558 2.38599 11.6959 2.22632C11.536 2.06666 11.3192 1.97685 11.0931 1.97659H6.63381C6.40769 1.97685 6.19091 2.06666 6.03103 2.22632C5.87114 2.38599 5.78121 2.60247 5.78095 2.82827V4.23339H1.72341C1.26649 4.23391 0.828439 4.4154 0.505351 4.73804C0.182262 5.06068 0.000523728 5.49813 6.76782e-06 5.95442V6.6849C-0.000647087 6.92343 0.046083 7.15973 0.137492 7.38011C0.228901 7.60049 0.363174 7.80057 0.532538 7.96878L1.49822 8.93305C1.66666 9.10218 1.86702 9.23627 2.08771 9.32755C2.30839 9.41883 2.54501 9.4655 2.78388 9.46485H6.35936V8.64094C6.35936 8.59022 6.37954 8.54158 6.41545 8.50572C6.45136 8.46986 6.50007 8.44971 6.55085 8.44971H11.4491C11.4999 8.44971 11.5486 8.46986 11.5846 8.50572C11.6205 8.54158 11.6406 8.59022 11.6406 8.64094V9.46485H15.2162C15.455 9.46552 15.6916 9.41889 15.9123 9.32764C16.133 9.23639 16.3333 9.10233 16.5018 8.93324L17.4677 7.9687C17.637 7.80048 17.7712 7.60039 17.8626 7.38001C17.954 7.15963 18.0007 6.92334 18 6.68482V5.95434C17.9995 5.49805 17.8177 5.0606 17.4946 4.73796C17.1716 4.41532 16.7335 4.23383 16.2766 4.23332ZM11.563 4.23332H6.16393V2.82827C6.16407 2.70387 6.21362 2.5846 6.30171 2.49663C6.3898 2.40867 6.50923 2.35918 6.63381 2.35904H11.0931C11.2177 2.35918 11.3371 2.40867 11.4252 2.49663C11.5133 2.5846 11.5628 2.70387 11.563 2.82827V4.23332Z" fill="#B3B3B3"/>
<path id="Vector_5" d="M6.75 8.83203H8.82422V10.5195H6.75V8.83203Z" fill="#B3B3B3"/>
</g>
</svg>
